<?xml version="1.0" encoding="utf-8"?>
<!-- Generator: Adobe Illustrator 23.0.1, SVG Export Plug-In . SVG Version: 6.00 Build 0)  -->
<svg version="1.1" id="Layer_1" xmlns="http://www.w3.org/2000/svg" xmlns:xlink="http://www.w3.org/1999/xlink" x="0px" y="0px"
	 viewBox="0 0 1665.2 517" style="enable-background:new 0 0 1665.2 517;" xml:space="preserve">
<style type="text/css">
	.st0{fill:#006797;}
	.st1{fill:#FFFFFF;}
	.st2{fill:#008FC0;}
	.st3{clip-path:url(#SVGID_2_);fill:#006797;}
	.st4{clip-path:url(#SVGID_4_);fill:#FFFFFF;}
	.st5{clip-path:url(#SVGID_4_);fill:#006797;}
	.st6{clip-path:url(#SVGID_6_);fill:#006797;}
	.st7{clip-path:url(#SVGID_8_);fill:#FFFFFF;}
	.st8{clip-path:url(#SVGID_8_);fill:#006797;}
</style>
<path class="st0" d="M241.9,268.1c-1,0.2-2.1,0.4-3.1,0.6c0.9,0.2,1.7,0.5,2.4,0.9C241.4,269.1,241.6,268.6,241.9,268.1"/>
<path class="st0" d="M1606.3,282.4c-3.6,0-7,0.2-9.8,0.4v36.8c1.7,0.2,5,0.4,9.1,0.4c15.1,0,24.2-7.7,24.2-19.3
	C1629.8,288,1621.9,282.4,1606.3,282.4 M1630.9,383.9l-31.5-50.2l-2.9,36.6c4,0.4,8.1,1,11.9,2.1v11.5h-45.4v-11.3
	c4.5-1,9.8-1.9,15-2.2v-88.9c-5.2-0.3-10.5-1.2-15-2.2v-11.3h13.4c4.5,0,18.4-0.7,32.5-0.7c24.1,0,40.6,8.4,40.6,31.5
	c0,17.5-12.7,29.1-30.6,31.8c2.4,2.9,4.8,6.4,6.9,9.6l20.1,30.1c3.6,0.5,7.9,1.2,12.4,2.1v11.7H1630.9z M1474,383.9v-11.3
	c4.5-1,9.8-1.9,15-2.2v-88.9c-5.2-0.3-10.5-1.2-15-2.2v-11.3h76.9v27.9h-13.6c-0.9-4.8-1.7-9.4-2.1-13.1h-27.7v34.8h22.2
	c0.5-3.8,1.2-7.4,2.2-10.7h11.7v35.1H1532c-1-3.3-1.9-7.2-2.2-10.7h-22.2v37.7h27.9c0.3-4.1,1.2-8.8,2.2-13.8h13.6v28.9H1474z
	 M1430.2,282.4c-3.6,0-6.5,0-9.6,0.4v42.5c2.7,0.3,5.5,0.7,8.3,0.7c15.6-0.2,26-8.8,26-22.4C1454.8,290.4,1447.1,282.4,1430.2,282.4
	 M1429.2,341.4c-2.6,0-5.7,0-8.6-0.3v29.2c5.2,0.4,10.5,1.2,15,2.2v11.3H1387v-11.3c4.5-1,9.8-1.9,15-2.2v-88.9
	c-5.2-0.3-10.5-1.2-15-2.2v-11.3h13.1c5.5,0,19.8-0.7,31.5-0.7c27.5,0,42.7,13.4,42.7,34.9C1474.2,324.6,1456.3,341.4,1429.2,341.4
	 M1299.5,383.9v-11.3c4.5-1,9.8-1.9,15-2.2v-88.9c-5.2-0.3-10.5-1.2-15-2.2v-11.3h76.9v27.9h-13.6c-0.8-4.8-1.7-9.4-2.1-13.1h-27.7
	v34.8h22.2c0.5-3.8,1.2-7.4,2.2-10.7h11.7v35.1h-11.7c-1-3.3-1.9-7.2-2.2-10.7h-22.2v37.7h27.9c0.4-4.1,1.2-8.8,2.2-13.8h13.6v28.9
	H1299.5z M1212,383.9v-11.3c4.5-1,9.8-1.9,15-2.2v-88.9c-5.2-0.3-10.5-1.2-15-2.2v-11.3h76.9v27.9h-13.6c-0.8-4.8-1.7-9.4-2.1-13.1
	h-27.7v34.8h22.2c0.5-3.8,1.2-7.4,2.2-10.7h11.7v35.1h-11.7c-1-3.3-1.9-7.2-2.2-10.7h-22.2v37.7h27.9c0.3-4.1,1.2-8.8,2.2-13.8h13.6
	v28.9H1212z M1157.8,383.9v-11.5c3.1-0.7,6.5-1.4,9.8-1.7l-38.9-44.7v44.4c3.8,0.4,8.4,1,12.2,2.1v11.5h-45.8v-11.3
	c4.5-1,9.8-1.9,15-2.2v-88.9c-5.2-0.3-10.5-1.2-15-2.2v-11.3h45.8v11.5c-3.8,1-8.4,1.7-12.2,2.1V323l38.4-42
	c-3.4-0.2-7.4-0.9-10.5-1.7v-11.5h44.9v11.3c-3.6,0.9-7.9,1.5-11.5,2.1l-39.9,42.3l42.5,47c3.6,0.3,7.9,1.2,11.5,2.1v11.3H1157.8z
	 M1087.7,298.4h-13.4c-1-6-2.1-11-2.4-15.3h-21v87.2c5.2,0.4,10.5,1.2,15,2.2v11.3h-48.7v-11.3c4.5-1,9.8-1.9,15-2.2v-87.2H1011
	c-0.3,4.3-1.2,9.3-2.2,15.3h-13.4v-30.6h92.4V298.4z M949.8,385.7c-9.1,0-18.1-1-25.5-2.9v-29.1h13.8c0.8,5.3,1.7,10.3,2.1,14.6
	c3.1,0.7,7,1.2,10.3,1.2c13.3,0,23.6-5.3,23.6-17.9c0-24.4-51.8-13.8-51.8-51.6c0-20,15.5-33.9,42.1-33.9c8.3,0,15.5,0.8,23.2,2.4
	v28.1h-13.8c-1.1-5-1.7-10-2.1-14.1c-1.9-0.4-5.3-0.9-8.1-0.9c-14.6,0-21.9,6.7-21.9,16.3c0,23.2,52,14.6,52,50.9
	C993.8,370.2,977,385.7,949.8,385.7 M866.6,304.3c-2.2-6-3.8-11.5-5.2-17.9c-1.5,6-3.4,12.2-5.7,18.4l-12.5,34.6h36.3L866.6,304.3z
	 M877.2,383.9v-11.3c4-0.9,8.8-1.7,13.1-2.1l-6-16.3h-45.9l-5.8,16.3c4.3,0.3,9.1,1.2,13.1,2.1v11.3h-41.8v-11.3
	c2.9-0.9,6.9-1.5,10-1.9l37-102.9h22.5l37.5,102.9c3.1,0.3,7,1,10,1.9v11.3H877.2z M758.4,282.6c-17.9,0-34.1,14.5-34.1,42.3
	c0,26.3,10.8,44,33.7,44c17.2,0,34.4-13.8,34.4-42.7C792.5,298.3,780.1,282.6,758.4,282.6 M756.7,385.7c-35.3,0-52.3-22.9-52.3-58.5
	c0-38.5,25.1-61.1,55.7-61.1c31.3,0,52.3,19.4,52.3,58.3C812.4,363,787.5,385.7,756.7,385.7 M683.5,300.5c-1-5.7-1.5-10.5-2.1-15.2
	c-5.1-1.4-9.8-1.7-14.8-1.7c-22.5,0-33.5,17.7-33.5,42.5c0,26.5,11,42.2,38.2,42.2c8.8,0,18.6-2.1,26-5.3l1.2,17.2
	c-9.4,3.3-20.3,5.3-31.5,5.3c-36.5,0-54.7-21-54.7-56.2c0-36.8,18.4-62.6,58.2-62.6c8.8,0,18.1,1.2,27,3.3v30.6H683.5z M618.1,199
	h11.5c0.4,2.8,0.8,5.5,2.2,8.2c2.7,5.9,7.7,8.1,12.2,8.1c5.4,0,10.5-3.2,10.5-9.6c0-6-5.1-8.5-8.1-9.9c-4.1-1.9-8.1-3.1-12.2-4.9
	c-9.1-3.7-15.5-8.9-15.5-19.7c0-13.8,10.7-20.6,21.7-20.6c9.8,0,13,4.4,14.5,6.8l0.8-5.4H667v24.8h-11.6c-0.2-1.9-0.5-6.9-3.7-10.5
	c-2.1-2.5-5.6-4.4-9.9-4.4c-6,0-9.2,3.8-9.2,7.9c0,5.1,4.8,7.6,8.4,9.2c3.7,1.7,7.6,3,11.3,4.5c5.2,2.2,16.1,6.7,16.1,21.1
	c0,12.7-8.8,21.4-22.4,21.4c-10.5,0-14.5-4.9-16.5-7.4l-0.2,6.4h-11.3V199z M766.3,161.9v-10.3H800v10.3h-5.3l15.8,52.4h6.1v10.7
	h-26.8v-10.7h6.1l-3.5-12.5H771l-4,12.5h5.8v10.7h-24.5v-10.7h6l17.1-52.4H766.3z M789.8,191.3l-7.9-28.9l-8.3,28.9H789.8z
	 M893.8,162.3v-10.7h28.3l19.7,62.7v-52h-6v-10.7h24.6v10.7h-7.1v62.7h-21l-19.7-62.7v52h6.2v10.7h-25v-10.7h6.9v-52H893.8z
	 M1108.8,162.3v-10.7h24.8c12.2,0.2,20.3,0.9,26.7,7.5c7.3,7.4,9.2,19,9.2,29.6c0,14.2-3.4,26-13,31.9c-7.1,4.3-16.1,4.4-23,4.5
	h-24.7v-10.7h6.7v-52H1108.8z M1135.5,162.3h-6.3v52.1h5.4c4.7-0.1,9.8-0.2,13.8-4c4.8-4.5,6.9-13.7,6.9-22c0-4.2-0.6-10.8-2.7-16.1
	C1148.6,162.6,1141.6,162.5,1135.5,162.3 M1240.5,151.6h27.9v10.7h-7v52h7v10.7h-27.9v-10.7h6.8v-52h-6.8V151.6z M1339.7,162.3
	v-10.7h54v24.8h-11.7v-13.6H1361v18.4h18.5V192H1361v22.4h21.1v-15.7h11.7v26.4h-54v-10.7h7.2v-52H1339.7z M1513,225.1v-8.5
	c-1.5,3.1-4.9,10-18.6,10c-5.5,0-11-1.5-15.4-5c-8.4-6.6-11.8-19.8-11.8-32.7c0-15.8,5.7-38.9,27.8-38.9c6.8,0,12.8,2.3,15.8,7.4
	l0.9-5.7h11.1v24.8H1511c-0.4-2.7-0.9-6.1-2.8-9.2c-2.5-3.7-6.7-6-11.1-6c-6.3,0-10.7,4.2-13,10.2c-2.1,5.5-2.6,11.6-2.6,17.5
	c0,10.1,2.3,18.5,6.9,23.2c2.3,2.3,4.8,3.4,8.3,3.4c3.5,0,7-1.2,9.4-3.7c3.4-3.5,4.6-8.6,5-13.5h-12.9v-10.7h26.2v37.6H1513z
	 M1592.2,187.9c0-13,3.5-25.5,12.8-32.4c6.8-5,16.9-6.8,26.1-4.7c21.1,4.7,22.9,29.6,22.9,37.9c0,8.6-1.7,17.3-6.1,24.7
	c-2.6,4.5-8.7,13.2-24.6,13.2C1600.9,226.7,1592.2,209.6,1592.2,187.9 M1639.8,188.6c0-9.1-1.8-27.3-16.3-27.3
	c-12.2,0-17.2,12-17.2,26.4c0,5.6,0.9,12.5,2.8,17.3c4.2,10.2,12.2,10.6,14,10.6c3.9,0,7.6-1.7,10.1-4.4
	C1636.2,208,1639.8,200.4,1639.8,188.6"/>
<path class="st1" d="M-6.3,257.2C-6.3,114.7,109.2-0.8,251.7-0.8s258.1,115.5,258.1,258.1c0,142.5-115.5,258.1-258.1,258.1
	S-6.3,399.7-6.3,257.2"/>
<path class="st0" d="M434.2,327.7c18.2,0.4,36.3,0.2,54.5,0.2c25.9-87,2.8-185.1-68-251.3C321-16.7,164.5-11.5,71.1,88.2
	c-61.8,66.1-80.4,157-56.9,238c17.4-2.6,35-4.2,52.8-4.7c-23.1-66.4-9.5-143.1,41.9-198c73.8-78.9,197.6-83,276.5-9.2
	C445.4,170.5,462.1,255.5,434.2,327.7"/>
<path class="st2" d="M374.7,323.4c1.2,0.2,2.9,0.4,2.5,0.3c0.6,0.1,1.2,0.1,1.7,0.2c1.6,0.2,3.1,0.4,4.7,0.5c3.4,0.4,6.8,0.7,10.1,1
	c6.5,0.5,13,0.9,19.5,1.3c7.1,0.3,14.2,0.6,21.2,0.7c27.9-72.3,11.2-157.4-48.9-213.6c-79-73.9-202.9-69.8-276.9,9.2
	c-51.5,55-65.1,131.8-42,198.3c3.5-0.1,7.1-0.2,10.6-0.2c16.6,0,33.1-0.5,49.7-0.7c-26-51-18.9-114.9,22.5-159.1
	c52.8-56.4,141.3-59.4,197.7-6.6C394.8,199,404.4,268.7,374.7,323.4"/>
<path class="st1" d="M296.4,336.5c3.9,0,7.7-0.2,11.5-0.5c1.8-0.2,3.5-0.4,5.3-0.6c0.3,0,0.8-0.1,1.1-0.1c0.6-0.1,1.2-0.2,1.8-0.3
	c7.2-1.1,14.3-2.4,21.5-3.5c13.1-2,26.3-3.6,39.5-1.9c0,0,0.5,0.1,1.2,0.2c30.5-56.2,20.6-127.9-28.2-173.7
	c-58-54.3-149.1-51.3-203.4,6.7c-42.6,45.5-49.9,111.2-23.2,163.7c21.7-0.4,43.3-0.4,64.9,1c20.5,1.3,36.5,3.9,56.9,6.1
	c14.5,1.5,29,3.1,43.5,5.2C291.1,337.3,293.7,336.5,296.4,336.5"/>
<g>
	<defs>
		<path id="SVGID_1_" d="M71.1,91.2C-22.2,191-17,347.5,82.7,440.8c99.7,93.3,256.3,88.1,349.6-11.6
			c93.3-99.7,88.1-256.3-11.6-349.6C373,35,312.3,12.9,251.8,12.9C185.7,12.9,119.8,39.2,71.1,91.2"/>
	</defs>
	<clipPath id="SVGID_2_">
		<use xlink:href="#SVGID_1_"  style="overflow:visible;"/>
	</clipPath>
	<path class="st3" d="M504.6,244.9c-0.5-5.3-0.3-11.1-0.3-17l-29.4-7.9c-4.4-3.8-11.2-4.8-16.9-2.4l-13.9,5.8
		c-4.1,1.7-8.9,1.7-12.9,0l-20.2-8.4c-4.2-1.8-9.2-1.7-13.4,0.2l-1.2,0.6l-20.1,9.2c-5.9,2.7-13.3,1.6-17.7-2.6
		c-3.6-3.4-9.3-4.9-14.7-3.6l-2.3,0.5c-4.5,1-9.2,0.2-12.8-2.2l-71.9-48c-5.4-3.6-13.1-3.5-18.3,0.3l-71.5,51.1
		c-4.9,3.5-12.2,3.8-17.5,0.7l-17.9-10.3c-5.6-3.2-13.2-2.7-18.1,1.2l-51.5,26.2c-2.6,2.1-28,1.7-47.9,1.2
		c3.6,5.8,5.8,12.6,6.1,19.8c0.1,2.4-0.1,4.7-0.5,6.9c0.2,1.5,0.4,3,0.5,4.6c0.3,7.1-1.8,13.9-5.6,19.7
		c19.3,1.8,33.2,18.1,34.1,37.3c0.2,3.5-0.3,6.9-1.2,10.2c1.3,0,2.6,0.1,3.9,0.1c2.2,0.6,4.5,1.1,6.5,1.6c14.2,3.6,33.3-6,47.9-3.6
		c8.6,1.4,16.8,3.7,24.8,6.3c1.9-0.9,3.9-1.4,6.1-1.2c0.5,0,1,0.1,1.5,0.1c2.7-3.3,6.6-5.4,11.1-5.1c0.1,0,0.3,0,0.4,0c0,0,0,0,0,0
		c0,0,0,0,0,0c10.5,0.6,21.2-0.8,31.7-2c25.4-3,50.8-7.2,76.5-7.4c21.1-0.2,44.4,2.1,60,16.9c2.7,0.2,5.3,0.5,8,0.8
		c3.6,0.4,7.2,0.7,10.9,0.9c0.7-0.5,1.5-1,2.2-1.5c9.5-6.9,18.6-14.4,28.2-21.1c10.6-7.4,23.7-14.4,37-13.2
		c14.9,1.3,24.3,12.2,35.4,20.9c0.1,0.1,0.2,0.2,0.4,0.3c8.7,1.2,17.4,2.8,26,4.9c-0.1-0.6-0.1-1.3-0.1-1.9
		c-0.8-16.9,12.2-31.7,27.9-36.1C494.9,280.4,506.2,261.6,504.6,244.9"/>
</g>
<g>
	<defs>
		<path id="SVGID_3_" d="M71.1,88.2C-22.2,188-17,344.5,82.7,437.8c99.7,93.3,256.3,88.1,349.6-11.6
			c93.3-99.7,88.1-256.3-11.6-349.6C373,32,312.3,9.9,251.8,9.9C185.7,9.9,119.8,36.2,71.1,88.2"/>
	</defs>
	<clipPath id="SVGID_4_">
		<use xlink:href="#SVGID_3_"  style="overflow:visible;"/>
	</clipPath>
	<path class="st4" d="M512.5,334.1c-30.1,0-45.9-7.1-59.9-13.4c-12-5.5-22.4-10.2-44.5-10.1c-22,0-32.4,4.8-44.4,10.3
		c-13.9,6.4-29.7,13.6-59.8,13.6c-30.1,0-45.9-7.1-59.9-13.4c-12-5.5-22.4-10.2-44.5-10.1c-22,0-32.4,4.8-44.4,10.3
		c-13.9,6.4-29.7,13.6-59.8,13.6c-30.1,0-45.9-7.1-59.9-13.4c-12-5.5-22.4-10.2-44.5-10.1l0-32.9c30.1,0,45.9,7.1,59.9,13.4
		c12,5.5,22.4,10.2,44.5,10.1c22,0,32.4-4.8,44.4-10.3c13.9-6.4,29.7-13.6,59.8-13.6c30.1,0,45.9,7.1,59.9,13.4
		c12,5.5,22.4,10.2,44.5,10.1c22,0,32.4-4.8,44.4-10.3c13.9-6.4,29.7-13.6,59.8-13.6c30.1,0,45.9,7.1,59.9,13.4
		c12,5.5,22.4,10.2,44.5,10.1L512.5,334.1z"/>
	<path class="st5" d="M512.6,481.8c-30.1,0-45.9-7.1-59.9-13.4c-12-5.5-22.4-10.2-44.5-10.1c-22,0-32.4,4.8-44.4,10.3
		c-13.9,6.4-29.7,13.6-59.8,13.6c-30.1,0-45.9-7.1-59.9-13.4c-12-5.5-22.4-10.2-44.5-10.1c-22,0-32.4,4.8-44.4,10.3
		c-13.9,6.4-29.7,13.6-59.8,13.6c-30.1,0-45.9-7.1-59.9-13.4c-12-5.5-22.4-10.2-44.5-10.1l0-32.9c30.1,0,45.9,7.1,59.9,13.4
		c12,5.5,22.4,10.2,44.5,10.1c22,0,32.4-4.8,44.4-10.3c13.9-6.4,29.7-13.6,59.8-13.6c30.1,0,45.9,7.1,59.9,13.4
		c12,5.5,22.4,10.2,44.5,10.1c22,0,32.4-4.8,44.4-10.3c13.9-6.4,29.7-13.6,59.8-13.6c30.1,0,45.9,7.1,59.9,13.4
		c12,5.5,22.4,10.2,44.5,10.1L512.6,481.8z M512.6,420.1c-30.1,0-45.9-7.1-59.9-13.4c-12-5.5-22.4-10.2-44.5-10.1
		c-22,0-32.4,4.8-44.4,10.3c-13.9,6.4-29.7,13.6-59.8,13.6c-30.1,0-45.9-7.1-59.9-13.4c-12-5.5-22.4-10.2-44.5-10.1
		c-22,0-32.4,4.8-44.4,10.3c-13.9,6.4-29.7,13.6-59.8,13.6c-30.1,0-45.9-7.1-59.9-13.4C23.4,401.7,13,397-9,397l0-32.9
		c30.1,0,45.9,7.1,59.9,13.4c12,5.5,22.4,10.2,44.5,10.1c22,0,32.4-4.8,44.4-10.3c13.9-6.4,29.7-13.6,59.8-13.6
		c30.1,0,45.9,7.1,59.9,13.4c12,5.5,22.4,10.2,44.5,10.1c22,0,32.4-4.8,44.4-10.3c13.9-6.4,29.7-13.6,59.8-13.6
		c30.1,0,45.9,7.1,59.9,13.4c12,5.5,22.4,10.2,44.5,10.1L512.6,420.1z M512.5,362.4c-30.1,0-45.9-7.1-59.9-13.4
		c-12-5.5-22.4-10.2-44.5-10.1c-22,0-32.4,4.8-44.4,10.3c-13.9,6.4-29.7,13.6-59.8,13.6c-30.1,0-45.9-7.1-59.9-13.4
		c-12-5.5-22.4-10.2-44.5-10.1c-22,0-32.4,4.8-44.4,10.3c-13.9,6.4-29.7,13.6-59.8,13.6c-30.1,0-45.9-7.1-59.9-13.4
		c-12-5.5-22.4-10.2-44.5-10.1l0-32.9c30.1,0,45.9,7.1,59.9,13.4c12,5.5,22.4,10.2,44.5,10.1c22,0,32.4-4.8,44.4-10.3
		c13.9-6.4,29.7-13.6,59.8-13.6c30.1,0,45.9,7.1,59.9,13.4c12,5.5,22.4,10.2,44.5,10.1c22,0,32.4-4.8,44.4-10.3
		c13.9-6.4,29.7-13.6,59.8-13.6c30.1,0,45.9,7.1,59.9,13.4c12,5.5,22.4,10.2,44.5,10.1L512.5,362.4z"/>
</g>
<path class="st0" d="M228.4-549.5c-1,0.2-2.1,0.4-3.1,0.6c0.9,0.2,1.7,0.5,2.4,0.9C227.8-548.5,228.1-549,228.4-549.5"/>
<path class="st1" d="M1592.8-535.1c-3.6,0-7,0.2-9.8,0.4v36.8c1.7,0.2,5,0.4,9.1,0.4c15.1,0,24.2-7.7,24.2-19.3
	C1616.3-529.6,1608.4-535.1,1592.8-535.1 M1617.4-433.6l-31.5-50.2l-2.9,36.6c4,0.4,8.1,1,11.9,2.1v11.5h-45.4V-445
	c4.5-1,9.8-1.9,15-2.2v-88.9c-5.2-0.3-10.5-1.2-15-2.2v-11.3h13.4c4.5,0,18.4-0.7,32.5-0.7c24.1,0,40.6,8.4,40.6,31.5
	c0,17.5-12.7,29.1-30.6,31.8c2.4,2.9,4.8,6.4,6.9,9.6l20.1,30.1c3.6,0.5,7.9,1.2,12.4,2.1v11.7H1617.4z M1460.5-433.6V-445
	c4.5-1,9.8-1.9,15-2.2v-88.9c-5.2-0.3-10.5-1.2-15-2.2v-11.3h76.9v27.9h-13.6c-0.9-4.8-1.7-9.4-2.1-13.1h-27.7v34.8h22.2
	c0.5-3.8,1.2-7.4,2.2-10.7h11.7v35.1h-11.7c-1-3.3-1.9-7.2-2.2-10.7h-22.2v37.7h27.9c0.3-4.1,1.2-8.8,2.2-13.8h13.6v28.9H1460.5z
	 M1416.7-535.1c-3.6,0-6.5,0-9.6,0.4v42.5c2.7,0.3,5.5,0.7,8.3,0.7c15.6-0.2,26-8.8,26-22.4C1441.3-527.2,1433.6-535.1,1416.7-535.1
	 M1415.7-476.1c-2.6,0-5.7,0-8.6-0.3v29.2c5.2,0.4,10.5,1.2,15,2.2v11.3h-48.5V-445c4.5-1,9.8-1.9,15-2.2v-88.9
	c-5.2-0.3-10.5-1.2-15-2.2v-11.3h13.1c5.5,0,19.8-0.7,31.5-0.7c27.5,0,42.7,13.4,42.7,34.9C1460.7-493,1442.8-476.1,1415.7-476.1
	 M1286-433.6V-445c4.5-1,9.8-1.9,15-2.2v-88.9c-5.2-0.3-10.5-1.2-15-2.2v-11.3h76.9v27.9h-13.6c-0.8-4.8-1.7-9.4-2.1-13.1h-27.7
	v34.8h22.2c0.5-3.8,1.2-7.4,2.2-10.7h11.7v35.1H1344c-1-3.3-1.9-7.2-2.2-10.7h-22.2v37.7h27.9c0.4-4.1,1.2-8.8,2.2-13.8h13.6v28.9
	H1286z M1198.5-433.6V-445c4.5-1,9.8-1.9,15-2.2v-88.9c-5.2-0.3-10.5-1.2-15-2.2v-11.3h76.9v27.9h-13.6c-0.8-4.8-1.7-9.4-2.1-13.1
	H1232v34.8h22.2c0.5-3.8,1.2-7.4,2.2-10.7h11.7v35.1h-11.7c-1-3.3-1.9-7.2-2.2-10.7H1232v37.7h27.9c0.3-4.1,1.2-8.8,2.2-13.8h13.6
	v28.9H1198.5z M1144.3-433.6v-11.5c3.1-0.7,6.5-1.4,9.8-1.7l-38.9-44.7v44.4c3.8,0.4,8.4,1,12.2,2.1v11.5h-45.8V-445
	c4.5-1,9.8-1.9,15-2.2v-88.9c-5.2-0.3-10.5-1.2-15-2.2v-11.3h45.8v11.5c-3.8,1-8.4,1.7-12.2,2.1v41.6l38.4-42
	c-3.4-0.2-7.4-0.9-10.5-1.7v-11.5h44.9v11.3c-3.6,0.9-7.9,1.5-11.5,2.1l-39.9,42.3l42.5,47c3.6,0.3,7.9,1.2,11.5,2.1v11.3H1144.3z
	 M1074.2-519.1h-13.4c-1-6-2.1-11-2.4-15.3h-21v87.2c5.2,0.4,10.5,1.2,15,2.2v11.3h-48.7V-445c4.5-1,9.8-1.9,15-2.2v-87.2h-21.2
	c-0.3,4.3-1.2,9.3-2.2,15.3h-13.4v-30.6h92.4V-519.1z M936.3-431.9c-9.1,0-18.1-1-25.5-2.9v-29.1h13.8c0.8,5.3,1.7,10.3,2.1,14.6
	c3.1,0.7,7,1.2,10.3,1.2c13.3,0,23.6-5.3,23.6-17.9c0-24.4-51.8-13.8-51.8-51.6c0-20,15.5-33.9,42.1-33.9c8.3,0,15.5,0.8,23.2,2.4
	v28.1h-13.8c-1.1-5-1.7-10-2.1-14.1c-1.9-0.4-5.3-0.9-8.1-0.9c-14.6,0-21.9,6.7-21.9,16.3c0,23.2,52,14.6,52,50.9
	C980.3-447.4,963.5-431.9,936.3-431.9 M853.1-513.3c-2.2-6-3.8-11.5-5.2-17.9c-1.5,6-3.4,12.2-5.7,18.4l-12.5,34.6H866L853.1-513.3z
	 M863.7-433.6V-445c4-0.9,8.8-1.7,13.1-2.1l-6-16.3h-45.9l-5.8,16.3c4.3,0.3,9.1,1.2,13.1,2.1v11.3h-41.8V-445
	c2.9-0.9,6.9-1.5,10-1.9l37-102.9h22.5l37.5,102.9c3.1,0.3,7,1,10,1.9v11.3H863.7z M744.9-535c-17.9,0-34.1,14.5-34.1,42.3
	c0,26.3,10.8,44,33.7,44c17.2,0,34.4-13.8,34.4-42.7C779-519.3,766.6-535,744.9-535 M743.2-431.9c-35.3,0-52.3-22.9-52.3-58.5
	c0-38.5,25.1-61.1,55.7-61.1c31.3,0,52.3,19.4,52.3,58.3C798.9-454.6,774-431.9,743.2-431.9 M670-517.1c-1-5.7-1.5-10.5-2.1-15.2
	c-5.1-1.4-9.8-1.7-14.8-1.7c-22.5,0-33.5,17.7-33.5,42.5c0,26.5,11,42.2,38.2,42.2c8.8,0,18.6-2.1,26-5.3l1.2,17.2
	c-9.4,3.3-20.3,5.3-31.5,5.3c-36.5,0-54.7-21-54.7-56.2c0-36.8,18.4-62.6,58.2-62.6c8.8,0,18.1,1.2,27,3.3v30.6H670z M604.6-618.6
	h11.5c0.4,2.8,0.8,5.5,2.2,8.2c2.7,5.9,7.7,8.1,12.2,8.1c5.4,0,10.5-3.2,10.5-9.6c0-6-5.1-8.5-8.1-9.9c-4.1-1.9-8.1-3.1-12.2-4.9
	c-9.1-3.7-15.5-8.9-15.5-19.7c0-13.8,10.7-20.6,21.7-20.6c9.8,0,13,4.4,14.5,6.8l0.8-5.4h11.2v24.8h-11.6c-0.2-1.9-0.5-6.9-3.7-10.5
	c-2.1-2.5-5.6-4.4-9.9-4.4c-6,0-9.2,3.8-9.2,7.9c0,5.1,4.8,7.6,8.4,9.2c3.7,1.7,7.6,3,11.3,4.5c5.2,2.2,16.1,6.7,16.1,21.1
	c0,12.7-8.8,21.4-22.4,21.4c-10.5,0-14.5-4.9-16.5-7.4l-0.2,6.4h-11.3V-618.6z M752.8-655.7V-666h33.7v10.3h-5.3l15.8,52.4h6.1v10.7
	h-26.8v-10.7h6.1l-3.5-12.5h-21.4l-4,12.5h5.8v10.7h-24.5v-10.7h6l17.1-52.4H752.8z M776.3-626.3l-7.9-28.9l-8.3,28.9H776.3z
	 M880.3-655.2V-666h28.3l19.7,62.7v-52h-6V-666h24.6v10.7h-7.1v62.7h-21L899-655.2v52h6.2v10.7h-25v-10.7h6.9v-52H880.3z
	 M1095.3-655.2V-666h24.8c12.2,0.2,20.3,0.9,26.7,7.5c7.3,7.4,9.2,19,9.2,29.6c0,14.2-3.4,26-13,31.9c-7.1,4.3-16.1,4.4-23,4.5
	h-24.7v-10.7h6.7v-52H1095.3z M1122-655.2h-6.3v52.1h5.4c4.7-0.1,9.8-0.2,13.8-4c4.8-4.5,6.9-13.7,6.9-22c0-4.2-0.6-10.8-2.7-16.1
	C1135-655,1128.1-655.1,1122-655.2 M1227-666h27.9v10.7h-7v52h7v10.7H1227v-10.7h6.8v-52h-6.8V-666z M1326.2-655.2V-666h54v24.8
	h-11.7v-13.6h-21.1v18.4h18.5v10.8h-18.5v22.4h21.1v-15.7h11.7v26.4h-54v-10.7h7.2v-52H1326.2z M1499.5-592.5v-8.5
	c-1.5,3.1-4.9,10-18.6,10c-5.5,0-11-1.5-15.4-5c-8.4-6.6-11.8-19.8-11.8-32.7c0-15.8,5.7-38.9,27.8-38.9c6.8,0,12.8,2.3,15.8,7.4
	l0.9-5.7h11.1v24.8h-11.9c-0.4-2.7-0.9-6.1-2.8-9.2c-2.5-3.7-6.7-6-11.1-6c-6.3,0-10.7,4.2-13,10.2c-2.1,5.5-2.6,11.6-2.6,17.5
	c0,10.1,2.3,18.5,6.9,23.2c2.3,2.3,4.8,3.4,8.3,3.4c3.5,0,7-1.2,9.4-3.7c3.4-3.5,4.6-8.6,5-13.5h-12.9v-10.7h26.2v37.6H1499.5z
	 M1578.7-629.6c0-13,3.5-25.5,12.8-32.4c6.8-5,16.9-6.8,26.1-4.7c21.1,4.7,22.9,29.6,22.9,37.9c0,8.6-1.7,17.3-6.1,24.7
	c-2.6,4.5-8.7,13.2-24.6,13.2C1587.4-590.9,1578.7-608,1578.7-629.6 M1626.3-629c0-9.1-1.8-27.3-16.3-27.3
	c-12.2,0-17.2,12-17.2,26.4c0,5.6,0.9,12.5,2.8,17.3c4.2,10.2,12.2,10.6,14,10.6c3.9,0,7.6-1.7,10.1-4.4
	C1622.7-609.6,1626.3-617.2,1626.3-629"/>
<path class="st1" d="M-19.8-560.4c0-142.5,115.5-258.1,258.1-258.1s258.1,115.5,258.1,258.1c0,142.5-115.5,258.1-258.1,258.1
	S-19.8-417.9-19.8-560.4"/>
<path class="st0" d="M420.7-489.8c18.2,0.4,36.3,0.2,54.5,0.2c25.9-87,2.8-185.1-68-251.3c-99.7-93.3-256.3-88.1-349.6,11.6
	c-61.8,66.1-80.4,157-56.9,238c17.4-2.6,35-4.2,52.8-4.7c-23.1-66.4-9.5-143.1,41.9-198c73.8-78.9,197.6-83,276.5-9.2
	C431.9-647.1,448.6-562.1,420.7-489.8"/>
<path class="st2" d="M361.2-494.2c1.2,0.2,2.9,0.4,2.5,0.3c0.6,0.1,1.2,0.1,1.7,0.2c1.6,0.2,3.1,0.4,4.7,0.5c3.4,0.4,6.8,0.7,10.1,1
	c6.5,0.5,13,0.9,19.5,1.3c7.1,0.3,14.2,0.6,21.2,0.7c27.9-72.3,11.2-157.4-48.9-213.6c-79-73.9-202.9-69.8-276.9,9.2
	c-51.5,55-65.1,131.8-42,198.3c3.5-0.1,7.1-0.2,10.6-0.2c16.6,0,33.1-0.5,49.7-0.7c-26-51-18.9-114.9,22.5-159.1
	c52.8-56.4,141.3-59.4,197.7-6.6C381.3-618.6,390.9-548.8,361.2-494.2"/>
<path class="st1" d="M282.8-481.1c3.9,0,7.7-0.2,11.5-0.5c1.8-0.2,3.5-0.4,5.3-0.6c0.3,0,0.8-0.1,1.1-0.1c0.6-0.1,1.2-0.2,1.8-0.3
	c7.2-1.1,14.3-2.4,21.5-3.5c13.1-2,26.3-3.6,39.5-1.9c0,0,0.5,0.1,1.2,0.2c30.5-56.2,20.6-127.9-28.2-173.7
	c-58-54.3-149.1-51.3-203.4,6.7C90.6-609.3,83.3-543.5,110-491.1c21.7-0.4,43.3-0.4,64.9,1c20.5,1.3,36.5,3.9,56.9,6.1
	c14.5,1.5,29,3.1,43.5,5.2C277.6-480.2,280.2-481.1,282.8-481.1"/>
<g>
	<defs>
		<path id="SVGID_5_" d="M57.6-726.4c-93.3,99.7-88.1,256.3,11.6,349.6c99.7,93.3,256.3,88.1,349.6-11.6
			c93.3-99.7,88.1-256.3-11.6-349.6c-47.7-44.6-108.4-66.7-168.9-66.7C172.2-804.7,106.3-778.4,57.6-726.4"/>
	</defs>
	<clipPath id="SVGID_6_">
		<use xlink:href="#SVGID_5_"  style="overflow:visible;"/>
	</clipPath>
	<path class="st6" d="M491.1-572.7c-0.5-5.3-0.3-11.1-0.3-17l-29.4-7.9c-4.4-3.8-11.2-4.8-16.9-2.4l-13.9,5.8
		c-4.1,1.7-8.9,1.7-12.9,0l-20.2-8.4c-4.2-1.8-9.2-1.7-13.4,0.2l-1.2,0.6l-20.1,9.2c-5.9,2.7-13.3,1.6-17.7-2.6
		c-3.6-3.4-9.3-4.9-14.7-3.6l-2.3,0.5c-4.5,1-9.2,0.2-12.8-2.2l-71.9-48c-5.4-3.6-13.1-3.5-18.3,0.3l-71.5,51.1
		c-4.9,3.5-12.2,3.8-17.5,0.7l-17.9-10.3c-5.6-3.2-13.2-2.7-18.1,1.2l-51.5,26.2c-2.6,2.1-28,1.7-47.9,1.2
		c3.6,5.8,5.8,12.6,6.1,19.8c0.1,2.4-0.1,4.7-0.5,6.9c0.2,1.5,0.4,3,0.5,4.6c0.3,7.1-1.8,13.9-5.6,19.7
		c19.3,1.8,33.2,18.1,34.1,37.3c0.2,3.5-0.3,6.9-1.2,10.2c1.3,0,2.6,0.1,3.9,0.1c2.2,0.6,4.5,1.1,6.5,1.6c14.2,3.6,33.3-6,47.9-3.6
		c8.6,1.4,16.8,3.7,24.8,6.3c1.9-0.9,3.9-1.4,6.1-1.2c0.5,0,1,0.1,1.5,0.1c2.7-3.3,6.6-5.4,11.1-5.1c0.1,0,0.3,0,0.4,0c0,0,0,0,0,0
		c0,0,0,0,0,0c10.5,0.6,21.2-0.8,31.7-2c25.4-3,50.8-7.2,76.5-7.4c21.1-0.2,44.4,2.1,60,16.9c2.7,0.2,5.3,0.5,8,0.8
		c3.6,0.4,7.2,0.7,10.9,0.9c0.7-0.5,1.5-1,2.2-1.5c9.5-6.9,18.6-14.4,28.2-21.1c10.6-7.4,23.7-14.4,37-13.2
		c14.9,1.3,24.3,12.2,35.4,20.9c0.1,0.1,0.2,0.2,0.4,0.3c8.7,1.2,17.4,2.8,26,4.9c-0.1-0.6-0.1-1.3-0.1-1.9
		c-0.8-16.9,12.2-31.7,27.9-36.1C481.4-537.2,492.7-556,491.1-572.7"/>
</g>
<g>
	<defs>
		<path id="SVGID_7_" d="M57.6-729.4c-93.3,99.7-88.1,256.3,11.6,349.6c99.7,93.3,256.3,88.1,349.6-11.6
			c93.3-99.7,88.1-256.3-11.6-349.6c-47.7-44.6-108.4-66.7-168.9-66.7C172.2-807.7,106.3-781.4,57.6-729.4"/>
	</defs>
	<clipPath id="SVGID_8_">
		<use xlink:href="#SVGID_7_"  style="overflow:visible;"/>
	</clipPath>
	<path class="st7" d="M499-483.5c-30.1,0-45.9-7.1-59.9-13.4c-12-5.5-22.4-10.2-44.5-10.1c-22,0-32.4,4.8-44.4,10.3
		c-13.9,6.4-29.7,13.6-59.8,13.6c-30.1,0-45.9-7.1-59.9-13.4c-12-5.5-22.4-10.2-44.5-10.1c-22,0-32.4,4.8-44.4,10.3
		c-13.9,6.4-29.7,13.6-59.8,13.6c-30.1,0-45.9-7.1-59.9-13.4c-12-5.5-22.4-10.2-44.5-10.1l0-32.9c30.1,0,45.9,7.1,59.9,13.4
		c12,5.5,22.4,10.2,44.5,10.1c22,0,32.4-4.8,44.4-10.3c13.9-6.4,29.7-13.6,59.8-13.6c30.1,0,45.9,7.1,59.9,13.4
		c12,5.5,22.4,10.2,44.5,10.1c22,0,32.4-4.8,44.4-10.3c13.9-6.4,29.7-13.6,59.8-13.6c30.1,0,45.9,7.1,59.9,13.4
		c12,5.5,22.4,10.2,44.5,10.1L499-483.5z"/>
	<path class="st8" d="M499.1-335.8c-30.1,0-45.9-7.1-59.9-13.4c-12-5.5-22.4-10.2-44.5-10.1c-22,0-32.4,4.8-44.4,10.3
		c-13.9,6.4-29.7,13.6-59.8,13.6c-30.1,0-45.9-7.1-59.9-13.4c-12-5.5-22.4-10.2-44.5-10.1c-22,0-32.4,4.8-44.4,10.3
		c-13.9,6.4-29.7,13.6-59.8,13.6c-30.1,0-45.9-7.1-59.9-13.4c-12-5.5-22.4-10.2-44.5-10.1l0-32.9c30.1,0,45.9,7.1,59.9,13.4
		c12,5.5,22.4,10.2,44.5,10.1c22,0,32.4-4.8,44.4-10.3c13.9-6.4,29.7-13.6,59.8-13.6c30.1,0,45.9,7.1,59.9,13.4
		c12,5.5,22.4,10.2,44.5,10.1c22,0,32.4-4.8,44.4-10.3c13.9-6.4,29.7-13.6,59.8-13.6c30.1,0,45.9,7.1,59.9,13.4
		c12,5.5,22.4,10.2,44.5,10.1L499.1-335.8z M499.1-397.5c-30.1,0-45.9-7.1-59.9-13.4c-12-5.5-22.4-10.2-44.5-10.1
		c-22,0-32.4,4.8-44.4,10.3c-13.9,6.4-29.7,13.6-59.8,13.6c-30.1,0-45.9-7.1-59.9-13.4c-12-5.5-22.4-10.2-44.5-10.1
		c-22,0-32.4,4.8-44.4,10.3C127.8-404.2,112-397,81.8-397c-30.1,0-45.9-7.1-59.9-13.4c-12-5.5-22.4-10.2-44.5-10.1l0-32.9
		c30.1,0,45.9,7.1,59.9,13.4c12,5.5,22.4,10.2,44.5,10.1c22,0,32.4-4.8,44.4-10.3c13.9-6.4,29.7-13.6,59.8-13.6
		c30.1,0,45.9,7.1,59.9,13.4c12,5.5,22.4,10.2,44.5,10.1c22,0,32.4-4.8,44.4-10.3c13.9-6.4,29.7-13.6,59.8-13.6
		c30.1,0,45.9,7.1,59.9,13.4c12,5.5,22.4,10.2,44.5,10.1L499.1-397.5z M499-455.2c-30.1,0-45.9-7.1-59.9-13.4
		c-12-5.5-22.4-10.2-44.5-10.1c-22,0-32.4,4.8-44.4,10.3c-13.9,6.4-29.7,13.6-59.8,13.6c-30.1,0-45.9-7.1-59.9-13.4
		c-12-5.5-22.4-10.2-44.5-10.1c-22,0-32.4,4.8-44.4,10.3c-13.9,6.4-29.7,13.6-59.8,13.6c-30.1,0-45.9-7.1-59.9-13.4
		c-12-5.5-22.4-10.2-44.5-10.1l0-32.9c30.1,0,45.9,7.1,59.9,13.4c12,5.5,22.4,10.2,44.5,10.1c22,0,32.4-4.8,44.4-10.3
		c13.9-6.4,29.7-13.6,59.8-13.6c30.1,0,45.9,7.1,59.9,13.4c12,5.5,22.4,10.2,44.5,10.1c22,0,32.4-4.8,44.4-10.3
		c13.9-6.4,29.7-13.6,59.8-13.6c30.1,0,45.9,7.1,59.9,13.4c12,5.5,22.4,10.2,44.5,10.1L499-455.2z"/>
</g>
</svg>
