<svg id="Layer_1" xmlns="http://www.w3.org/2000/svg" xmlns:xlink="http://www.w3.org/1999/xlink" viewBox="0 0 1695.6 498.8"><style>.st0{fill:#006797}.st1{fill:#fff}</style><path class="st0" d="M241.7 262.4c-1 .2-2.1.4-3.1.6.9.2 1.7.5 2.4.9.1-.5.4-1 .7-1.5zM1606 276.8c-3.6 0-7 .2-9.8.4V314c1.7.2 5 .4 9.1.4 15.1 0 24.3-7.7 24.3-19.3 0-12.8-7.9-18.3-23.6-18.3zm24.7 101.5l-31.5-50.2-2.9 36.6c4 .4 8.1 1 11.9 2.1v11.5h-45.4V367c4.5-1 9.8-1.9 15-2.2v-88.9c-5.2-.4-10.5-1.2-15-2.2v-11.5h13.4c4.5 0 18.4-.7 32.5-.7 24.1 0 40.6 8.4 40.6 31.5 0 17.5-12.7 29.1-30.6 31.8 2.4 2.9 4.8 6.4 6.9 9.6l20.1 30.1c3.6.5 7.9 1.2 12.4 2.1v11.7h-27.4zm-156.9 0V367c4.5-1 9.8-1.9 15-2.2v-88.9c-5.2-.4-10.5-1.2-15-2.2v-11.5h76.9v27.9h-13.6c-.9-4.8-1.7-9.4-2.1-13.1h-27.6v34.8h22.2c.5-3.8 1.2-7.4 2.2-10.7h11.7v35.1h-11.7c-1-3.3-1.9-7.2-2.2-10.7h-22.2v37.7h27.9c.3-4.1 1.2-8.8 2.2-13.8h13.6v28.9h-77.3zM1430 276.8c-3.6 0-6.5 0-9.6.4v42.5c2.7.3 5.5.7 8.3.7 15.6-.2 26-8.8 26-22.4-.1-13.3-7.9-21.2-24.7-21.2zm-1 59c-2.6 0-5.7 0-8.6-.3v29.2c5.2.4 10.5 1.2 15 2.2v11.3h-48.5v-11.3c4.5-1 9.8-1.9 15-2.2v-88.9c-5.2-.4-10.5-1.2-15-2.2v-11.4h13.1c5.5 0 19.8-.7 31.5-.7 27.5 0 42.7 13.4 42.7 34.9-.2 22.5-18.1 39.4-45.2 39.4zm-129.7 42.5V367c4.5-1 9.8-1.9 15-2.2v-88.9c-5.2-.4-10.5-1.2-15-2.2v-11.5h76.9v27.9h-13.6c-.8-4.8-1.7-9.4-2.1-13.1h-27.7v34.8h22.2c.5-3.8 1.2-7.4 2.2-10.7h11.7v35.1h-11.7c-1-3.3-1.9-7.2-2.2-10.7h-22.2v37.7h27.9c.4-4.1 1.2-8.8 2.2-13.8h13.6v28.9h-77.2zm-87.5 0V367c4.5-1 9.8-1.9 15-2.2v-88.9c-5.2-.4-10.5-1.2-15-2.2v-11.5h76.9v27.9h-13.6c-.8-4.8-1.7-9.4-2.1-13.1h-27.7v34.8h22.2c.5-3.8 1.2-7.4 2.2-10.7h11.7v35.1h-11.7c-1-3.3-1.9-7.2-2.2-10.7h-22.2v37.7h27.9c.4-4.1 1.2-8.8 2.2-13.8h13.6v28.9h-77.2zm-54.2 0v-11.5c3.1-.7 6.6-1.4 9.8-1.7l-38.9-44.7v44.4c3.8.4 8.4 1 12.2 2.1v11.5h-45.8v-11.3c4.5-1 9.8-1.9 15-2.2V276c-5.2-.4-10.5-1.2-15-2.2v-11.6h45.8v11.5c-3.8 1-8.4 1.7-12.2 2.1v41.6l38.4-42c-3.4-.2-7.4-.9-10.5-1.7v-11.5h44.9v11.3c-3.6.9-7.9 1.5-11.5 2.1l-39.9 42.3 42.5 47c3.6.4 7.9 1.2 11.5 2.1v11.3h-46.3zm-70.1-85.5h-13.4c-1-6-2.1-11-2.4-15.3h-21v87.2c5.2.4 10.5 1.2 15 2.2v11.3H1017v-11.3c4.5-1 9.8-1.9 15-2.2v-87.2h-21.2c-.3 4.3-1.2 9.3-2.2 15.3h-13.4v-30.6h92.4v30.6h-.1zM949.6 380c-9.1 0-18.1-1-25.5-2.9V348h13.8c.8 5.3 1.7 10.3 2.1 14.6 3.1.7 7 1.2 10.3 1.2 13.3 0 23.6-5.3 23.6-17.9 0-24.4-51.8-13.8-51.8-51.6 0-20 15.5-33.9 42.1-33.9 8.3 0 15.5.8 23.2 2.4v28.1h-13.8c-1.1-5-1.7-10-2.1-14.1-1.9-.4-5.3-.9-8.1-.9-14.6 0-21.9 6.7-21.9 16.3 0 23.2 52 14.6 52 50.9.1 21.4-16.7 36.9-43.9 36.9zm-83.2-81.4c-2.2-6-3.8-11.5-5.2-17.9-1.5 6-3.4 12.2-5.7 18.4L843 333.7h36.3l-12.9-35.1zm10.6 79.7V367c4-.9 8.8-1.7 13.1-2.1l-6-16.3h-45.9l-5.8 16.3c4.3.4 9.1 1.2 13.1 2.1v11.3h-41.8V367c2.9-.9 6.9-1.5 10-1.9l37-102.9h22.5l37.5 102.9c3.1.4 7 1 10 1.9v11.3H877zM758.2 276.9c-17.9 0-34.1 14.5-34.1 42.3 0 26.3 10.8 44 33.7 44 17.2 0 34.4-13.8 34.4-42.7.1-27.9-12.3-43.6-34-43.6zM756.5 380c-35.3 0-52.3-22.9-52.3-58.5 0-38.5 25.1-61.1 55.7-61.1 31.3 0 52.3 19.4 52.3 58.3 0 38.6-24.9 61.3-55.7 61.3zm-73.2-85.2c-1-5.7-1.5-10.5-2.1-15.2-5.1-1.4-9.8-1.7-14.8-1.7-22.5 0-33.5 17.7-33.5 42.5 0 26.5 11 42.2 38.2 42.2 8.8 0 18.6-2.1 26-5.3l1.2 17.2c-9.4 3.3-20.3 5.3-31.5 5.3-36.5 0-54.7-21-54.7-56.2 0-36.8 18.4-62.6 58.2-62.6 8.8 0 18.1 1.2 27 3.3v30.6l-14-.1zm-65.5-101.5h11.6c.4 2.8.8 5.5 2.2 8.2 2.7 5.9 7.7 8.1 12.2 8.1 5.4 0 10.5-3.2 10.5-9.6 0-6-5.1-8.5-8.1-9.9-4.1-1.9-8.1-3.1-12.2-4.9-9.1-3.7-15.5-8.9-15.5-19.7 0-13.8 10.7-20.6 21.7-20.6 9.8 0 13 4.4 14.5 6.8l.8-5.4h11.2v24.8h-11.6c-.2-1.9-.5-6.9-3.7-10.5-2.1-2.5-5.6-4.4-9.9-4.4-6 0-9.2 3.8-9.2 7.9 0 5.1 4.8 7.6 8.4 9.2 3.7 1.7 7.6 3 11.3 4.5 5.2 2.2 16.1 6.7 16.1 21.1 0 12.7-8.8 21.4-22.4 21.4-10.5 0-14.5-4.9-16.5-7.4l-.2 6.5h-11.3v-26.1h.1zm148.3-37.1v-10.3h33.7v10.3h-5.3l15.8 52.4h6.1v10.7h-26.8v-10.7h6.1l-3.5-12.5h-21.4l-4 12.5h5.8v10.7h-24.5v-10.7h6l17.1-52.4h-5.1zm23.5 29.4l-7.9-28.9-8.3 28.9h16.2zm104-28.9V146h28.3l19.7 62.7v-52h-6V146h24.6v10.7h-7.1v62.7h-21l-19.7-62.7v52h6.2v10.7h-25v-10.7h6.9v-52h-6.9zm215 0V146h24.8c12.2.2 20.3.9 26.7 7.5 7.3 7.4 9.2 19 9.2 29.6 0 14.2-3.4 26-13 31.9-7.1 4.3-16.1 4.4-23 4.5h-24.7v-10.7h6.7v-52h-6.7v-.1zm26.7 0h-6.3v52.1h5.4c4.7-.1 9.8-.2 13.8-4 4.8-4.5 6.9-13.7 6.9-22 0-4.2-.6-10.8-2.7-16.1-4.1-9.8-11-9.9-17.1-10zm105-10.8h27.9v10.7h-7v52h7v10.7h-27.9v-10.7h6.8v-52h-6.8v-10.7zm99.2 10.8V146h54v24.8h-11.7v-13.6h-21.1v18.4h18.5v10.8h-18.5v22.4h21.1v-15.7h11.7v26.4h-54v-10.7h7.2v-52l-7.2-.1zm173.2 62.7v-8.5c-1.5 3.1-4.9 10-18.6 10-5.5 0-11-1.5-15.4-5-8.4-6.6-11.8-19.8-11.8-32.7 0-15.8 5.7-38.9 27.8-38.9 6.8 0 12.8 2.3 15.8 7.4l.9-5.7h11.1v24.8h-11.9c-.4-2.7-.9-6.1-2.8-9.2-2.5-3.7-6.7-6-11.1-6-6.3 0-10.7 4.2-13 10.2-2.1 5.5-2.6 11.6-2.6 17.5 0 10.1 2.3 18.5 6.9 23.2 2.3 2.3 4.8 3.4 8.3 3.4s7-1.2 9.4-3.7c3.4-3.5 4.6-8.6 5-13.5h-12.9V182h26.2v37.6h-11.3v-.2zm79.3-37.1c0-13 3.5-25.5 12.8-32.4 6.8-5 16.9-6.8 26.1-4.7 21.1 4.7 22.9 29.6 22.9 37.9 0 8.6-1.7 17.3-6.1 24.7-2.6 4.5-8.7 13.2-24.6 13.2-22.4 0-31.1-17.1-31.1-38.7zm47.5.6c0-9.1-1.8-27.3-16.3-27.3-12.2 0-17.2 12-17.2 26.4 0 5.6.9 12.5 2.8 17.3 4.2 10.2 12.2 10.6 14 10.6 3.9 0 7.6-1.7 10.1-4.4 3.1-3.2 6.6-10.8 6.6-22.6z"/><circle class="st1" cx="251.5" cy="251.5" r="258.1"/><path class="st0" d="M434 322.1c18.2.4 36.3.2 54.5.2 25.9-87 2.8-185.1-68-251.3-99.7-93.3-256.3-88.1-349.6 11.6-61.8 66.1-80.4 157-56.9 238 17.4-2.6 35-4.2 52.8-4.7-23.1-66.4-9.5-143.1 41.9-198 73.8-78.9 197.6-83 276.5-9.2 60 56.1 76.7 141.1 48.8 213.4z"/><path d="M374.5 317.7c1.2.2 2.9.4 2.5.3.6.1 1.2.1 1.7.2 1.6.2 3.1.4 4.7.5 3.4.4 6.8.7 10.1 1 6.5.5 13 .9 19.5 1.3 7.1.3 14.2.6 21.2.7 28-72.4 11.2-157.5-48.8-213.7-79-73.9-203-69.8-276.9 9.2-51.5 55-65.1 131.8-42 198.3 3.5-.1 7.1-.2 10.6-.2 16.6 0 33.1-.5 49.7-.7-26-51-18.9-114.9 22.5-159.1 52.8-56.4 141.3-59.4 197.7-6.6 47.6 44.4 57.2 114.2 27.5 168.8z" fill="#008fc0"/><path d="M296.1 330.8c3.9 0 7.7-.2 11.5-.5 1.8-.2 3.5-.4 5.3-.6.4 0 .8-.1 1.1-.1l1.8-.3c7.2-1.1 14.3-2.4 21.5-3.5 13.1-2 26.3-3.6 39.5-1.9 0 0 .5.1 1.2.2 30.5-56.2 20.6-127.9-28.2-173.7-58-54.3-149.1-51.3-203.4 6.7-42.6 45.5-49.9 111.2-23.2 163.7 21.7-.3 43.3-.4 64.9 1 20.5 1.3 36.5 3.9 56.9 6.1 14.5 1.5 29 3.1 43.5 5.2 2.4-1.4 5-2.3 7.6-2.3z" fill="#5cc9f3"/><defs><circle id="SVGID_1_" cx="251.5" cy="254.5" r="247.3"/></defs><clipPath id="SVGID_2_"><use xlink:href="#SVGID_1_" overflow="visible"/></clipPath><path d="M504.4 239.2c-.5-5.3-.3-11.1-.3-17l-29.4-7.9c-4.4-3.8-11.2-4.8-16.9-2.4l-13.9 5.8c-4.1 1.7-8.9 1.7-12.9 0l-20.2-8.4c-4.2-1.8-9.2-1.7-13.4.2l-1.2.6-20.1 9.2c-5.9 2.7-13.3 1.6-17.7-2.6-3.6-3.4-9.3-4.9-14.7-3.6l-2.3.5c-4.5 1-9.2.2-12.8-2.2l-71.9-48c-5.4-3.6-13.1-3.5-18.3.3l-71.5 51.1c-4.9 3.5-12.2 3.8-17.5.7l-17.9-10.3c-5.6-3.2-13.2-2.7-18.1 1.2l-51.5 26.2c-2.6 2.1-28 1.7-47.9 1.2 3.6 5.8 5.8 12.6 6.1 19.8.1 2.4-.1 4.7-.5 6.9.2 1.5.4 3 .5 4.6.3 7.1-1.8 13.9-5.6 19.7 19.3 1.8 33.2 18.1 34.1 37.3.2 3.5-.3 6.9-1.2 10.2 1.3 0 2.6.1 3.9.1 2.2.6 4.5 1.1 6.5 1.6 14.2 3.5 33.3-6 47.9-3.6 8.6 1.4 16.8 3.7 24.8 6.3 1.9-.9 3.9-1.4 6.1-1.2.5 0 1 .1 1.5.1 2.7-3.3 6.6-5.4 11.1-5.1h.4c10.5.6 21.2-.8 31.7-2 25.4-3 50.8-7.2 76.5-7.4 21.1-.2 44.4 2.1 60 16.9 2.7.2 5.3.5 8 .8 3.6.4 7.2.7 10.9.9.7-.5 1.5-1 2.2-1.5 9.5-6.9 18.6-14.4 28.2-21.1 10.6-7.4 23.7-14.4 37-13.2 14.9 1.3 24.3 12.2 35.4 20.9.1.1.2.2.4.3 8.7 1.2 17.4 2.8 26 4.9-.1-.6-.1-1.3-.1-1.9-.8-16.9 12.2-31.7 27.9-36.1 1-17.3 12.3-36.1 10.7-52.8z" clip-path="url(#SVGID_2_)" fill="#006797"/><defs><circle id="SVGID_3_" cx="251.5" cy="251.5" r="247.3"/></defs><clipPath id="SVGID_4_"><use xlink:href="#SVGID_3_" overflow="visible"/></clipPath><path d="M512.3 328.4c-30.1 0-45.9-7.1-59.9-13.4-12-5.5-22.4-10.2-44.5-10.1-22 0-32.4 4.8-44.4 10.3-13.9 6.4-29.7 13.6-59.8 13.6-30.1 0-45.9-7.1-59.9-13.4-12-5.5-22.4-10.2-44.5-10.1-22 0-32.4 4.8-44.4 10.3-13.9 6.4-29.7 13.6-59.8 13.6s-45.9-7.1-59.9-13.4c-12-5.5-22.4-10.2-44.5-10.1v-32.9c30.1 0 45.9 7.1 59.9 13.4 12 5.5 22.4 10.2 44.5 10.1 22.1-.1 32.4-4.8 44.4-10.3 13.9-6.4 29.7-13.6 59.8-13.6 30.1 0 45.9 7.1 59.9 13.4 12 5.5 22.4 10.2 44.5 10.1 22 0 32.4-4.8 44.4-10.3 13.9-6.4 29.7-13.6 59.8-13.6 30.1 0 45.9 7.1 59.9 13.4 12 5.5 22.4 10.2 44.5 10.1v32.9z" clip-path="url(#SVGID_4_)" fill="#fff"/><defs><circle id="SVGID_5_" cx="251.5" cy="251.5" r="247.3"/></defs><clipPath id="SVGID_6_"><use xlink:href="#SVGID_5_" overflow="visible"/></clipPath><path d="M512.4 476.1c-30.1 0-45.9-7.1-59.9-13.4-12-5.5-22.4-10.2-44.5-10.1-22 0-32.4 4.8-44.4 10.3-13.9 6.4-29.7 13.6-59.8 13.6-30.1 0-45.9-7.1-59.9-13.4-12-5.5-22.4-10.2-44.5-10.1-22 0-32.4 4.8-44.4 10.3-13.9 6.4-29.7 13.6-59.8 13.6s-45.9-7.1-59.9-13.4c-12-5.5-22.4-10.2-44.5-10.1v-32.9c30.1 0 45.9 7.1 59.9 13.4 12 5.5 22.4 10.2 44.5 10.1 22.1-.1 32.4-4.8 44.4-10.3 13.9-6.4 29.7-13.6 59.8-13.6 30.1 0 45.9 7.1 59.9 13.4 12 5.5 22.4 10.2 44.5 10.1 22 0 32.4-4.8 44.4-10.3 13.9-6.4 29.7-13.6 59.8-13.6 30.1 0 45.9 7.1 59.9 13.4 12 5.5 22.4 10.2 44.5 10.1v32.9zm0-61.7c-30.1 0-45.9-7.1-59.9-13.4-12-5.5-22.4-10.2-44.5-10.1-22 0-32.4 4.8-44.4 10.3-13.9 6.4-29.7 13.6-59.8 13.6-30.1 0-45.9-7.1-59.9-13.4-12-5.5-22.4-10.2-44.5-10.1-22 0-32.4 4.8-44.4 10.3-13.9 6.4-29.7 13.6-59.8 13.6s-45.9-7.1-59.9-13.4c-12-5.5-22.4-10.2-44.5-10.1v-32.9c30.1 0 45.9 7.1 59.9 13.4 12 5.5 22.4 10.2 44.5 10.1 22.1-.1 32.4-4.8 44.4-10.3 13.9-6.4 29.7-13.6 59.8-13.6 30.1 0 45.9 7.1 59.9 13.4 12 5.5 22.4 10.2 44.5 10.1 22 0 32.4-4.8 44.4-10.3 13.9-6.4 29.7-13.6 59.8-13.6 30.1 0 45.9 7.1 59.9 13.4 12 5.5 22.4 10.2 44.5 10.1v32.9zm-.1-57.7c-30.1 0-45.9-7.1-59.9-13.4-12-5.5-22.4-10.2-44.5-10.1-22 0-32.4 4.8-44.4 10.3-13.9 6.4-29.7 13.6-59.8 13.6-30.1 0-45.9-7.1-59.9-13.4-12-5.5-22.4-10.2-44.5-10.1-22 0-32.4 4.8-44.4 10.3-13.9 6.4-29.7 13.6-59.8 13.6s-45.9-7.1-59.9-13.4c-12-5.5-22.4-10.2-44.5-10.1v-32.9c30.1 0 45.9 7.1 59.9 13.4 12 5.5 22.4 10.2 44.5 10.1 22.1-.1 32.4-4.8 44.4-10.3 13.9-6.4 29.7-13.6 59.8-13.6 30.1 0 45.9 7.1 59.9 13.4 12 5.5 22.4 10.2 44.5 10.1 22 0 32.4-4.8 44.4-10.3 13.9-6.4 29.7-13.6 59.8-13.6 30.1 0 45.9 7.1 59.9 13.4 12 5.5 22.4 10.2 44.5 10.1v32.9z" clip-path="url(#SVGID_6_)" fill="#006797"/><path class="st1" d="M243.1 172.6l7.5-5.4c.4-.3.9-.3 1.3 0l20.9 13.6c1.2.8.2 2.7-1.1 2.1l-19.4-8.9c-.2-.1-.4-.1-.6-.1l-7.7.9c-1.3.1-1.9-1.5-.9-2.2zm-118.1 36l17.8 9.2c.5.2.3.9-.2.9h-5.8c-.4 0-.6.4-.5.7l1.3 2.9-12.7-10.4c-.2-.1-.4-.1-.6-.1l-2.9 1.6c-.5.3-1-.3-.6-.8l3.6-4.1c.1 0 .3 0 .6.1zm279.1 5.4l2.8-1.4c.2-.1.3-.1.5 0l11.5 5.9c.6.3.2 1.2-.4 1l-11.1-3.9h-.1l-3.1-.5c-.5-.1-.6-.8-.1-1.1z"/><path class="st0" d="M1695.6 331c0 6.7-5.3 12-12.2 12-6.8 0-12.2-5.3-12.2-12 0-6.6 5.4-11.9 12.2-11.9 6.9.1 12.2 5.3 12.2 11.9zm-21.3 0c0 5.3 3.9 9.5 9.3 9.5 5.2 0 9-4.2 9-9.4 0-5.3-3.8-9.5-9.1-9.5-5.3-.1-9.2 4.2-9.2 9.4zm7.3 6.2h-2.7v-11.9c1.1-.2 2.6-.4 4.6-.4 2.2 0 3.3.4 4.1.9.7.5 1.2 1.4 1.2 2.6 0 1.3-1 2.3-2.5 2.7v.1c1.2.4 1.8 1.3 2.2 2.9.4 1.8.6 2.5.9 3h-3c-.4-.4-.6-1.5-.9-2.9-.2-1.3-.9-1.9-2.5-1.9h-1.3l-.1 4.9zm0-6.7h1.3c1.5 0 2.7-.5 2.7-1.7 0-1.1-.8-1.8-2.5-1.8-.7 0-1.2.1-1.5.1v3.4z"/></svg>