<svg xmlns="http://www.w3.org/2000/svg" viewBox="0 0 194.8 80.52"><defs><style>.cls-1{fill:#006797}.cls-4{fill:#fff}</style></defs><g id="Layer_2" data-name="Layer 2"><g id="Layer_1-2" data-name="Layer 1"><path class="cls-1" d="M35 80.17c-6.52-1.17-10.32-4.49-13.68-7.41C16.87 68.89 13 65.55 3.7 67.2l-.43-2.44C13.76 62.9 18.43 67 23 70.88c3.27 2.85 6.65 5.78 12.5 6.85z"/><path class="cls-1" d="M43.68 73.15c-7 0-11.43-3-15.71-5.85-6.15-4.15-12-8.06-25.83-3.71l-.74-2.37c15-4.7 21.59-.27 28 4 4.76 3.21 9.26 6.24 17.42 5.23l.31 2.46a27.66 27.66 0 0 1-3.45.24z"/><path class="cls-1" d="M41.81 64.82c-4.55 0-8.83-2.11-13-4.17-7.88-3.87-16-7.88-27.34-.22L.05 58.37c12.51-8.46 21.7-3.94 29.82.05 7 3.47 13.13 6.46 20.42.61L51.84 61a15.67 15.67 0 0 1-10.03 3.82z"/><path class="cls-1" d="M2.45 56.92L.85 55a27 27 0 0 0 2.37-2.4c2.78-3 6.24-6.82 12.83-6.91 3.45-.06 5.6 1.49 7.69 3a16.07 16.07 0 0 0 9.18 3.61l-.17 2.47a18.56 18.56 0 0 1-10.44-4.06c-2-1.42-3.59-2.54-6.23-2.51-5.51.08-8.44 3.28-11 6.1a29.3 29.3 0 0 1-2.63 2.62z"/><path d="M50.61 56.54c-11.2-9.89-18-8-18-8 2.63 3.39 1.24 7.51-2.89 11.06 0 0 9.71 6.26 18.82 2.18 2.07-.97 2.07-5.24 2.07-5.24z" fill="#f9f9f9"/><path class="cls-1" d="M41.83 64.37A26 26 0 0 1 29 60.6l-1.4-.9 1.26-1.08c1.8-1.55 5.67-5.56 2.72-9.36l-1.1-1.46 1.8-.49c.3-.09 7.58-1.92 19.15 8.3l.42.37v.56c0 .52-.08 5.11-2.82 6.33a17.44 17.44 0 0 1-7.2 1.5zm-10-5.07c2.9 1.45 9.8 4.19 16.22 1.31.82-.37 1.23-2.24 1.32-3.52-5.26-4.56-9.42-6.33-12-7a13 13 0 0 0-2.66-.45c1.21 3.02.19 6.46-2.91 9.66z"/><path class="cls-1" d="M42.94 63.78a17.1 17.1 0 0 0-8.81-13.43l1-2.25a19.35 19.35 0 0 1 10.28 15.41z"/><path class="cls-1" d="M2.13 50.35c3.18-3 8.42-7.16 14.38-7.21 5.27 0 9 4.61 12.7 5.92a.58.58 0 0 0 .69-.83 18.3 18.3 0 0 1-1.15-2.51.57.57 0 0 1 .4-.76l1.1-.3c.28-.08 9.11-1.38 19.6 7.23a.58.58 0 0 1-.37 1 .58.58 0 0 1-.58-.58V35.15a.58.58 0 0 0-.58-.58H1.41a.58.58 0 0 0-.58.58v15.07a.58.58 0 0 0 1 .43z"/><path class="cls-1" d="M50.7 43a15.15 15.15 0 0 1-.93-6 66.93 66.93 0 0 1 1.15-10.74l-1.55-.87a2.05 2.05 0 0 0-2.1.05l-.19.11-3.16 1.93a2.09 2.09 0 0 1-2.78-.54 2.12 2.12 0 0 0-2.31-.76l-.36.11a2.07 2.07 0 0 1-2-.46L25.13 15.74a2.08 2.08 0 0 0-2.88.06L11 26.52a2.09 2.09 0 0 1-2.76.15l-2.81-2.16a2.1 2.1 0 0 0-2.85.24l-1.41 1a120.49 120.49 0 0 1 0 17.25z"/><path class="cls-1" d="M3.31 41.15H0V25.86A20.65 20.65 0 0 1 20.63 5.23h12.23l-.2 3.3h-12A17.34 17.34 0 0 0 3.31 25.86z"/><path class="cls-1" d="M31.63 80.52h-11a20.64 20.64 0 0 1-17.09-9.11A20.43 20.43 0 0 1 0 59.89V41.15h3.31v18.74a17.09 17.09 0 0 0 3 9.66 17.31 17.31 0 0 0 14.35 7.66h11A17.34 17.34 0 0 0 49 59.89v-34a17.24 17.24 0 0 0-1-5.66l3.12-1.09a20.36 20.36 0 0 1 1.14 6.75v34a20.65 20.65 0 0 1-20.63 20.63z"/><path d="M61.7 34.76v3.73h1.62v-.92a2.74 2.74 0 0 0 2.37 1 3 3 0 0 0 3.2-3.06 3.14 3.14 0 0 0-2.31-3c-.53-.21-1.09-.4-1.62-.64s-1.21-.58-1.21-1.31a1.17 1.17 0 0 1 1.31-1.13 1.87 1.87 0 0 1 1.42.62 2.65 2.65 0 0 1 .52 1.54h1.65v-3.54h-1.6v.92l-.05-.15a2.12 2.12 0 0 0-2.07-1 2.9 2.9 0 0 0-3.11 2.95c0 1.53.92 2.27 2.22 2.81.58.25 1.16.43 1.74.7a1.6 1.6 0 0 1 1.16 1.41 1.38 1.38 0 0 1-1.5 1.37 1.86 1.86 0 0 1-1.74-1.16 3.59 3.59 0 0 1-.32-1.17zm13.13-5.3h.75L73.14 37h-.86v1.53h3.49V37h-.83l.56-1.79h3.07l.5 1.79h-.87v1.53H82V37h-.88l-2.26-7.5h.75V28h-4.78zm3.37 4.2h-2.32l1.19-4.14zm6.8-4.14h.98v7.44H85v1.53h3.57v-1.53h-.89v-7.44l2.81 8.97h3v-8.97h1.01v-1.53h-3.51v1.53h.87v7.44l-2.81-8.97H85v1.53zm19.43 0h1V37h-1v1.53H108a6.63 6.63 0 0 0 3.29-.64c1.37-.85 1.86-2.54 1.86-4.57a6 6 0 0 0-1.31-4.22c-.93-.94-2.09-1-3.83-1.07h-3.54zm3.83 0A2.21 2.21 0 0 1 110.7 31a7 7 0 0 1 .38 2.31 4.55 4.55 0 0 1-1 3.14 2.79 2.79 0 0 1-2 .56h-.77v-7.49zm8.55-1.53v1.53h.97v7.44h-.97v1.53h3.99v-1.53h-1v-7.44h1v-1.53h-3.99zm7.73 1.53h1.02v7.44h-1.02v1.53h7.72v-3.78h-1.67v2.25h-3.02v-3.2h2.65v-1.55h-2.65v-2.63h3.02v1.95h1.67v-3.54h-7.72v1.53zm18.31 8.97h1.62v-5.37h-3.75v1.53h1.85a3.13 3.13 0 0 1-.72 1.94 1.86 1.86 0 0 1-1.34.53 1.56 1.56 0 0 1-1.19-.49 4.82 4.82 0 0 1-1-3.32 7.29 7.29 0 0 1 .37-2.5 2 2 0 0 1 1.86-1.45 1.89 1.89 0 0 1 1.59.86 3.36 3.36 0 0 1 .41 1.31h1.69V28h-1.59v1c0-.08-.07-.15-.1-.22a2.52 2.52 0 0 0-2.27-1.06c-3.15 0-4 3.3-4 5.56 0 1.85.48 3.74 1.68 4.67a3.47 3.47 0 0 0 2.21.72c2 0 2.45-1 2.66-1.43zm5.85-5.31c0 3.09 1.25 5.53 4.44 5.53a3.72 3.72 0 0 0 3.52-1.89 6.72 6.72 0 0 0 .87-3.52c0-1.19-.25-4.75-3.27-5.42a4.76 4.76 0 0 0-3.73.67 5.58 5.58 0 0 0-1.83 4.63zm6.79.09a4.91 4.91 0 0 1-.93 3.24 2 2 0 0 1-1.45.63 2.15 2.15 0 0 1-2-1.52 7.4 7.4 0 0 1-.41-2.47c0-2.07.72-3.78 2.46-3.78 2.08 0 2.33 2.63 2.33 3.9z" fill-rule="evenodd" fill="#006797"/><path class="cls-1" d="M69.13 48.18c-.13-.71-.19-1.32-.26-1.9a6.66 6.66 0 0 0-1.87-.22c-2.84 0-4.22 2.23-4.22 5.35 0 3.34 1.38 5.31 4.8 5.31a8.65 8.65 0 0 0 3.28-.67l.14 2.17a12.33 12.33 0 0 1-4 .67c-4.59 0-6.89-2.65-6.89-7.09 0-4.63 2.32-7.88 7.33-7.88a15.4 15.4 0 0 1 3.4.41v3.85zm9.23 10.73c-4.45 0-6.59-2.88-6.59-7.37 0-4.85 3.16-7.69 7-7.69s6.59 2.45 6.59 7.34-3.13 7.72-7 7.72zm.21-13c-2.25 0-4.29 1.82-4.29 5.33 0 3.32 1.37 5.55 4.25 5.55 2.17 0 4.33-1.74 4.33-5.38s-1.56-5.48-4.29-5.48zm15 12.76v-1.41a13.71 13.71 0 0 1 1.61-.26l-.76-2.06h-5.78L87.9 57a14.21 14.21 0 0 1 1.65.26v1.43h-5.27v-1.43a8.76 8.76 0 0 1 1.26-.26l4.66-13H93l4.72 13a8.76 8.76 0 0 1 1.26.24v1.43zm-1.35-10a17.08 17.08 0 0 1-.65-2.25c-.19.76-.43 1.54-.71 2.32l-1.58 4.35h4.57zm10.48 10.25a13.29 13.29 0 0 1-3.21-.37v-3.67h1.74c.1.67.22 1.3.26 1.84a6.24 6.24 0 0 0 1.3.15c1.67 0 3-.67 3-2.25 0-3.08-6.53-1.73-6.53-6.5 0-2.51 2-4.27 5.31-4.27a14.85 14.85 0 0 1 2.93.3v3.54h-1.73a14.88 14.88 0 0 1-.27-1.78 5.56 5.56 0 0 0-1-.11c-1.85 0-2.76.85-2.76 2.06 0 2.92 6.55 1.84 6.55 6.41-.07 2.73-2.2 4.64-5.62 4.64zm17.37-11h-1.69c-.13-.75-.26-1.38-.3-1.92h-2.68v11a11.91 11.91 0 0 1 1.89.28v1.43h-6.13v-1.45A11.78 11.78 0 0 1 113 57V46h-2.66c0 .54-.15 1.17-.28 1.92h-1.69v-3.85H120zm8.83 10.77v-1.45a12.34 12.34 0 0 1 1.24-.22l-4.9-5.63V57a9.18 9.18 0 0 1 1.54.26v1.45H121v-1.45a11.78 11.78 0 0 1 1.88-.28v-11.2a11.78 11.78 0 0 1-1.88-.28v-1.43h5.76v1.45a9.18 9.18 0 0 1-1.54.26V51l4.78-5.26a7 7 0 0 1-1.32-.22v-1.45h5.66v1.43c-.46.11-1 .19-1.46.26l-5 5.33 5.37 5.91a11.9 11.9 0 0 1 1.45.26v1.43zm6.82 0v-1.43a11.91 11.91 0 0 1 1.89-.28v-11.2a11.91 11.91 0 0 1-1.89-.28v-1.43h9.68v3.51h-1.71c-.1-.61-.21-1.19-.26-1.65h-3.48v4.38h2.79A7.55 7.55 0 0 1 143 49h1.48v4.41H143a6.79 6.79 0 0 1-.28-1.34h-2.79v4.74h3.5a17.32 17.32 0 0 1 .29-1.73h1.71v3.64zm11 0v-1.43a12.09 12.09 0 0 1 1.88-.26V45.78a12.09 12.09 0 0 1-1.89-.28v-1.43h9.69v3.51h-1.72c-.1-.61-.21-1.19-.25-1.65h-3.49v4.38h2.79A8.56 8.56 0 0 1 154 49h1.48v4.41H154a7.6 7.6 0 0 1-.28-1.34h-2.79v4.74h3.51a14.66 14.66 0 0 1 .28-1.73h1.71v3.64zM163 53.34a10.21 10.21 0 0 1-1.08 0V57a12.09 12.09 0 0 1 1.89.28v1.43h-6.12v-1.45a12.09 12.09 0 0 1 1.89-.28v-11.2a12.09 12.09 0 0 1-1.89-.28v-1.43h1.65c.69 0 2.49-.09 4-.09 3.46 0 5.37 1.69 5.37 4.4s-2.24 4.96-5.71 4.96zm.13-7.43A11.64 11.64 0 0 0 162 46v5.3a7.3 7.3 0 0 0 1 .09c2 0 3.27-1.1 3.27-2.82s-.97-2.66-3.1-2.66zm5.52 12.78v-1.43a11.91 11.91 0 0 1 1.89-.28v-11.2a11.91 11.91 0 0 1-1.89-.28v-1.43h9.69v3.51h-1.72c-.1-.61-.21-1.19-.26-1.65h-3.48v4.38h2.79A8.56 8.56 0 0 1 176 49h1.48v4.41H176a7.6 7.6 0 0 1-.28-1.34h-2.79v4.74h3.51a14.66 14.66 0 0 1 .28-1.73h1.71v3.64zm19.76 0l-4-6.32-.3 4.63a8.41 8.41 0 0 1 1.5.26v1.45h-5.72v-1.45a11.78 11.78 0 0 1 1.88-.28v-11.2a11.78 11.78 0 0 1-1.88-.28v-1.43h1.69c.56 0 2.31-.09 4.09-.09 3 0 5.12 1.06 5.12 4 0 2.21-1.61 3.66-3.86 4a13.83 13.83 0 0 1 .87 1.21l2.53 3.81c.46.06 1 .15 1.56.26v1.47zm-3.11-12.78h-1.23v4.64h1.15c1.91 0 3.05-1 3.05-2.43s-.95-2.21-2.93-2.21zm7.87 2a1.59 1.59 0 1 1 1.59-1.59 1.59 1.59 0 0 1-1.55 1.62zm0-3a1.41 1.41 0 0 0-1.4 1.41 1.41 1.41 0 0 0 2.81 0 1.41 1.41 0 0 0-1.37-1.32zm-.24 2l-.52.22.23-1.53.56-.22c.43.08.54.14.6.23a.46.46 0 0 1-.09.54l.29.85-.89-.67zm0-.7c.54-.1.63-.24.61-.42l-.51-.3z"/><path class="cls-4" d="M31.27 78H21.05a18.13 18.13 0 0 1-15.13-8.3 18.93 18.93 0 0 1-3.13-10.46V26.75A18.53 18.53 0 0 1 21.05 8h10.22a18.52 18.52 0 0 1 18.25 18.75v32.49A18.52 18.52 0 0 1 31.27 78zM4 41.35v17.89A17.67 17.67 0 0 0 7 69a16.91 16.91 0 0 0 14.1 7.73h10.17a17.28 17.28 0 0 0 17-17.5V26.75a17.28 17.28 0 0 0-17-17.5H21.05A17.29 17.29 0 0 0 4 26.75z"/><path class="cls-1" d="M42.32 23.3A11.65 11.65 0 1 1 54 11.65 11.66 11.66 0 0 1 42.32 23.3zm0-20.82a9.17 9.17 0 1 0 9.17 9.17 9.18 9.18 0 0 0-9.17-9.17z"/><path class="cls-4" d="M31.38 46.31c.08-.12.19-.06.18-.28a2.23 2.23 0 0 0-.63-1 19 19 0 0 0-3.49-2.69c-1.39-.91-2.88-1.81-4.38-2.86a19.21 19.21 0 0 1-4.27-3.86 9.25 9.25 0 0 1-1.5-2.81 7.63 7.63 0 0 1-.29-3.2 9.46 9.46 0 0 1 .79-2.83c.19-.43.42-.87.62-1.23l.59-1.12L21.47 20l1.21-2.24c.39-.76.81-1.5 1.14-2.29-.18.84-.45 1.65-.69 2.47l-.76 2.45-1.57 4.82-.39 1.22a9.81 9.81 0 0 0-.32 1.13 6.61 6.61 0 0 0-.17 2.14A4.72 4.72 0 0 0 21.7 33a15.26 15.26 0 0 0 3.81 2.24c1.45.65 3 1.22 4.63 1.88.82.33 1.65.67 2.51 1.09a18.13 18.13 0 0 1 2.66 1.53A9.78 9.78 0 0 1 38 42.47a8 8 0 0 1 1 2.19 8.48 8.48 0 0 1 .25 2.43z"/><path class="cls-4" d="M30.41 43.58l1.8 2.88-1.92-.17-.89-3.91 1.01 1.2z"/><path class="cls-4" d="M27 42c1.59 1.43 2.12 4.82.68 7.15s3.15 1.22 3.15 1.22L29.5 47l1.3-1-1.09-4.51z"/></g></g></svg>