<svg xmlns="http://www.w3.org/2000/svg" viewBox="0 0 194.8 80.52"><defs><style>.cls-1,.cls-3{fill:#006797;}.cls-2{fill:#f9f9f9;}.cls-3{fill-rule:evenodd;}.cls-4{fill:#fff;}</style></defs><title>logo</title><g id="Layer_2" data-name="Layer 2"><g id="Layer_1-2" data-name="Layer 1"><path class="cls-1" d="M35,80.17C28.48,79,24.68,75.68,21.32,72.76,16.87,68.89,13,65.55,3.7,67.2l-.43-2.44C13.76,62.9,18.43,67,23,70.88c3.27,2.85,6.65,5.78,12.5,6.85Z"/><path class="cls-1" d="M43.68,73.15c-7,0-11.43-3-15.71-5.85-6.15-4.15-12-8.06-25.83-3.71L1.4,61.22c15-4.7,21.59-.27,28,4,4.76,3.21,9.26,6.24,17.42,5.23l.31,2.46A27.66,27.66,0,0,1,43.68,73.15Z"/><path class="cls-1" d="M41.81,64.82c-4.55,0-8.83-2.11-13-4.17-7.88-3.87-16-7.88-27.34-.22L.05,58.37c12.51-8.46,21.7-3.94,29.82.05,7,3.47,13.13,6.46,20.42.61L51.84,61A15.67,15.67,0,0,1,41.81,64.82Z"/><path class="cls-1" d="M2.45,56.92.85,55a27,27,0,0,0,2.37-2.4c2.78-3,6.24-6.82,12.83-6.91,3.45-.06,5.6,1.49,7.69,3a16.07,16.07,0,0,0,9.18,3.61l-.17,2.47a18.56,18.56,0,0,1-10.44-4.06c-2-1.42-3.59-2.54-6.23-2.51-5.51.08-8.44,3.28-11,6.1A29.3,29.3,0,0,1,2.45,56.92Z"/><path class="cls-2" d="M50.61,56.54c-11.2-9.89-18-8-18-8,2.63,3.39,1.24,7.51-2.89,11.06,0,0,9.71,6.26,18.82,2.18C50.61,60.81,50.61,56.54,50.61,56.54Z"/><path class="cls-1" d="M41.83,64.37A26,26,0,0,1,29,60.6l-1.4-.9,1.26-1.08c1.8-1.55,5.67-5.56,2.72-9.36L30.48,47.8l1.8-.49c.3-.09,7.58-1.92,19.15,8.3l.42.37v.56c0,.52-.08,5.11-2.82,6.33A17.44,17.44,0,0,1,41.83,64.37Zm-10-5.07c2.9,1.45,9.8,4.19,16.22,1.31.82-.37,1.23-2.24,1.32-3.52-5.26-4.56-9.42-6.33-12-7a13,13,0,0,0-2.66-.45C35.92,52.66,34.9,56.1,31.8,59.3Z"/><path class="cls-1" d="M42.94,63.78a17.1,17.1,0,0,0-8.81-13.43l1-2.25A19.35,19.35,0,0,1,45.41,63.51Z"/><path class="cls-1" d="M2.13,50.35c3.18-3,8.42-7.16,14.38-7.21,5.27,0,9,4.61,12.7,5.92a.58.58,0,0,0,.69-.83,18.3,18.3,0,0,1-1.15-2.51.57.57,0,0,1,.4-.76l1.1-.3c.28-.08,9.11-1.38,19.6,7.23a.58.58,0,0,1-.37,1h0a.58.58,0,0,1-.58-.58V35.15a.58.58,0,0,0-.58-.58H1.41a.58.58,0,0,0-.58.58V50.22a.58.58,0,0,0,1,.43Z"/><path class="cls-1" d="M50.7,43a15.15,15.15,0,0,1-.93-6,66.93,66.93,0,0,1,1.15-10.74l-1.55-.87a2.05,2.05,0,0,0-2.1.05l-.19.11-3.16,1.93a2.09,2.09,0,0,1-2.78-.54,2.12,2.12,0,0,0-2.31-.76l-.36.11a2.07,2.07,0,0,1-2-.46L25.13,15.74a2.08,2.08,0,0,0-2.88.06L11,26.52a2.09,2.09,0,0,1-2.76.15L5.43,24.51a2.1,2.1,0,0,0-2.85.24l-1.41,1A120.49,120.49,0,0,1,1.17,43Z"/><path class="cls-1" d="M3.31,41.15H0V25.86A20.65,20.65,0,0,1,20.63,5.23h11c.41,0,.82,0,1.23,0l-.2,3.3c-.34,0-.69,0-1,0h-11A17.34,17.34,0,0,0,3.31,25.86Z"/><path class="cls-1" d="M31.63,80.52h-11A20.64,20.64,0,0,1,3.54,71.41,20.43,20.43,0,0,1,0,59.89V41.15H3.31V59.89a17.09,17.09,0,0,0,3,9.66,17.31,17.31,0,0,0,14.35,7.66h11A17.34,17.34,0,0,0,49,59.89v-34a17.24,17.24,0,0,0-1-5.66l3.12-1.09a20.36,20.36,0,0,1,1.14,6.75v34A20.65,20.65,0,0,1,31.63,80.52Z"/><path class="cls-3" d="M61.7,34.76v3.73h1.62l0-.92a2.74,2.74,0,0,0,2.37,1,3,3,0,0,0,3.2-3.06,3.14,3.14,0,0,0-2.31-3c-.53-.21-1.09-.4-1.62-.64s-1.21-.58-1.21-1.31a1.17,1.17,0,0,1,1.31-1.13,1.87,1.87,0,0,1,1.42.62A2.65,2.65,0,0,1,67,31.59h1.65V28.05h-1.6l0,.92L67,28.82a2.12,2.12,0,0,0-2.07-1,2.9,2.9,0,0,0-3.11,2.95c0,1.53.92,2.27,2.22,2.81.58.25,1.16.43,1.74.7a1.6,1.6,0,0,1,1.16,1.41,1.38,1.38,0,0,1-1.5,1.37,1.86,1.86,0,0,1-1.74-1.16,3.59,3.59,0,0,1-.32-1.17Z"/><path class="cls-3" d="M74.83,29.46h.75L73.14,37h-.86v1.53h3.49V37h-.83l.56-1.79h3.07l.5,1.79H78.2v1.53H82V37h-.88l-2.26-7.5h.75V28H74.83Zm3.37,4.2H75.88l1.19-4.14Z"/><polygon class="cls-3" points="85 29.52 85.98 29.52 85.98 36.96 85 36.96 85 38.49 88.57 38.49 88.57 36.96 87.68 36.96 87.68 29.52 90.49 38.49 93.49 38.49 93.49 29.52 94.5 29.52 94.5 27.99 90.99 27.99 90.99 29.52 91.86 29.52 91.86 36.96 89.05 27.99 85 27.99 85 29.52"/><path class="cls-3" d="M104.43,29.52h1V37h-1v1.53H108a6.63,6.63,0,0,0,3.29-.64c1.37-.85,1.86-2.54,1.86-4.57a6,6,0,0,0-1.31-4.22c-.93-.94-2.09-1-3.83-1.07h-3.54Zm3.83,0A2.21,2.21,0,0,1,110.7,31a7,7,0,0,1,.38,2.31,4.55,4.55,0,0,1-1,3.14,2.79,2.79,0,0,1-2,.56h-.77V29.52Z"/><polygon class="cls-3" points="116.81 27.99 116.81 29.52 117.78 29.52 117.78 36.96 116.81 36.96 116.81 38.49 120.8 38.49 120.8 36.96 119.8 36.96 119.8 29.52 120.8 29.52 120.8 27.99 116.81 27.99"/><polygon class="cls-3" points="124.54 29.52 125.56 29.52 125.56 36.96 124.54 36.96 124.54 38.49 132.26 38.49 132.26 34.71 130.59 34.71 130.59 36.96 127.57 36.96 127.57 33.76 130.22 33.76 130.22 32.21 127.57 32.21 127.57 29.58 130.59 29.58 130.59 31.53 132.26 31.53 132.26 27.99 124.54 27.99 124.54 29.52"/><path class="cls-3" d="M142.85,38.49h1.62V33.12h-3.75v1.53h1.85a3.13,3.13,0,0,1-.72,1.94,1.86,1.86,0,0,1-1.34.53,1.56,1.56,0,0,1-1.19-.49,4.82,4.82,0,0,1-1-3.32,7.29,7.29,0,0,1,.37-2.5,2,2,0,0,1,1.86-1.45,1.89,1.89,0,0,1,1.59.86,3.36,3.36,0,0,1,.41,1.31h1.69V28h-1.59l0,1c0-.08-.07-.15-.1-.22a2.52,2.52,0,0,0-2.27-1.06c-3.15,0-4,3.3-4,5.56,0,1.85.48,3.74,1.68,4.67a3.47,3.47,0,0,0,2.21.72c2,0,2.45-1,2.66-1.43Z"/><path class="cls-3" d="M148.7,33.18c0,3.09,1.25,5.53,4.44,5.53a3.72,3.72,0,0,0,3.52-1.89,6.72,6.72,0,0,0,.87-3.52c0-1.19-.25-4.75-3.27-5.42a4.76,4.76,0,0,0-3.73.67A5.58,5.58,0,0,0,148.7,33.18Zm6.79.09a4.91,4.91,0,0,1-.93,3.24,2,2,0,0,1-1.45.63,2.15,2.15,0,0,1-2-1.52,7.4,7.4,0,0,1-.41-2.47c0-2.07.72-3.78,2.46-3.78C155.24,29.37,155.49,32,155.49,33.27Z"/><path class="cls-1" d="M69.13,48.18c-.13-.71-.19-1.32-.26-1.9A6.66,6.66,0,0,0,67,46.06c-2.84,0-4.22,2.23-4.22,5.35,0,3.34,1.38,5.31,4.8,5.31a8.65,8.65,0,0,0,3.28-.67L71,58.22a12.33,12.33,0,0,1-4,.67c-4.59,0-6.89-2.65-6.89-7.09,0-4.63,2.32-7.88,7.33-7.88a15.4,15.4,0,0,1,3.4.41v3.85Zm9.23,10.73c-4.45,0-6.59-2.88-6.59-7.37,0-4.85,3.16-7.69,7-7.69s6.59,2.45,6.59,7.34S82.23,58.91,78.36,58.91Zm.21-13c-2.25,0-4.29,1.82-4.29,5.33,0,3.32,1.37,5.55,4.25,5.55,2.17,0,4.33-1.74,4.33-5.38S81.3,45.93,78.57,45.93Zm15,12.76V57.26A13.71,13.71,0,0,1,95.18,57l-.76-2.06H88.64L87.9,57a14.21,14.21,0,0,1,1.65.26v1.43H84.28V57.26A8.76,8.76,0,0,1,85.54,57l4.66-13H93l4.72,13a8.76,8.76,0,0,1,1.26.24v1.43Zm-1.35-10a17.08,17.08,0,0,1-.65-2.25c-.19.76-.43,1.54-.71,2.32l-1.58,4.35h4.57Zm10.48,10.25a13.29,13.29,0,0,1-3.21-.37V54.88h1.74c.1.67.22,1.3.26,1.84a6.24,6.24,0,0,0,1.3.15c1.67,0,3-.67,3-2.25,0-3.08-6.53-1.73-6.53-6.5,0-2.51,2-4.27,5.31-4.27a14.85,14.85,0,0,1,2.93.3v3.54h-1.73a14.88,14.88,0,0,1-.27-1.78,5.56,5.56,0,0,0-1-.11c-1.85,0-2.76.85-2.76,2.06,0,2.92,6.55,1.84,6.55,6.41C108.22,57,106.09,58.91,102.67,58.91Zm17.37-11h-1.69c-.13-.75-.26-1.38-.3-1.92H115.4V57a11.91,11.91,0,0,1,1.89.28v1.43h-6.13V57.26A11.78,11.78,0,0,1,113,57V46h-2.66c0,.54-.15,1.17-.28,1.92h-1.69V44.07H120Zm8.83,10.77V57.24a12.34,12.34,0,0,1,1.24-.22l-4.9-5.63V57a9.18,9.18,0,0,1,1.54.26v1.45H121V57.26a11.78,11.78,0,0,1,1.88-.28V45.78A11.78,11.78,0,0,1,121,45.5V44.07h5.76v1.45a9.18,9.18,0,0,1-1.54.26V51L130,45.74a7,7,0,0,1-1.32-.22V44.07h5.66V45.5c-.46.11-1,.19-1.46.26l-5,5.33L133.25,57a11.9,11.9,0,0,1,1.45.26v1.43Zm6.82,0V57.26a11.91,11.91,0,0,1,1.89-.28V45.78a11.91,11.91,0,0,1-1.89-.28V44.07h9.68v3.51h-1.71c-.1-.61-.21-1.19-.26-1.65h-3.48v4.38h2.79A7.55,7.55,0,0,1,143,49h1.48v4.41H143a6.79,6.79,0,0,1-.28-1.34h-2.79v4.74h3.5a17.32,17.32,0,0,1,.29-1.73h1.71v3.64Zm11,0V57.26A12.09,12.09,0,0,1,148.6,57V45.78a12.09,12.09,0,0,1-1.89-.28V44.07h9.69v3.51h-1.72c-.1-.61-.21-1.19-.25-1.65h-3.49v4.38h2.79A8.56,8.56,0,0,1,154,49h1.48v4.41H154a7.6,7.6,0,0,1-.28-1.34h-2.79v4.74h3.51a14.66,14.66,0,0,1,.28-1.73h1.71v3.64ZM163,53.34a10.21,10.21,0,0,1-1.08,0V57a12.09,12.09,0,0,1,1.89.28v1.43h-6.12V57.26a12.09,12.09,0,0,1,1.89-.28V45.78a12.09,12.09,0,0,1-1.89-.28V44.07h1.65c.69,0,2.49-.09,4-.09,3.46,0,5.37,1.69,5.37,4.4S166.47,53.34,163,53.34Zm.13-7.43A11.64,11.64,0,0,0,162,46V51.3a7.3,7.3,0,0,0,1,.09c2,0,3.27-1.1,3.27-2.82S165.3,45.91,163.17,45.91Zm5.52,12.78V57.26a11.91,11.91,0,0,1,1.89-.28V45.78a11.91,11.91,0,0,1-1.89-.28V44.07h9.69v3.51h-1.72c-.1-.61-.21-1.19-.26-1.65h-3.48v4.38h2.79A8.56,8.56,0,0,1,176,49h1.48v4.41H176a7.6,7.6,0,0,1-.28-1.34h-2.79v4.74h3.51a14.66,14.66,0,0,1,.28-1.73h1.71v3.64Zm19.76,0-4-6.32L184.11,57a8.41,8.41,0,0,1,1.5.26v1.45h-5.72V57.26a11.78,11.78,0,0,1,1.88-.28V45.78a11.78,11.78,0,0,1-1.88-.28V44.07h1.69c.56,0,2.31-.09,4.09-.09,3,0,5.12,1.06,5.12,4,0,2.21-1.61,3.66-3.86,4a13.83,13.83,0,0,1,.87,1.21L190.33,57c.46.06,1,.15,1.56.26v1.47Zm-3.11-12.78c-.45,0-.88,0-1.23,0v4.64c.22,0,.63,0,1.15,0,1.91,0,3.05-1,3.05-2.43S187.32,45.91,185.34,45.91Zm7.87,2a1.59,1.59,0,1,1,1.59-1.59A1.59,1.59,0,0,1,193.21,47.94Zm0-3a1.41,1.41,0,0,0-1.4,1.41,1.41,1.41,0,0,0,2.81,0A1.41,1.41,0,0,0,193.21,45Zm-.24,2-.52.22.23-1.53.56-.22c.43.08.54.14.6.23a.46.46,0,0,1-.09.54L194,47l-.89-.67Zm0-.7c.54-.1.63-.24.61-.42l-.51-.3Z"/><path class="cls-4" d="M31.27,78H21.05A18.13,18.13,0,0,1,5.92,69.7,18.93,18.93,0,0,1,2.79,59.24V26.75A18.53,18.53,0,0,1,21.05,8H31.27A18.52,18.52,0,0,1,49.52,26.75V59.24A18.52,18.52,0,0,1,31.27,78ZM4,41.35V59.24A17.67,17.67,0,0,0,7,69a16.91,16.91,0,0,0,14.1,7.73H31.27a17.28,17.28,0,0,0,17-17.5V26.75a17.28,17.28,0,0,0-17-17.5H21.05A17.29,17.29,0,0,0,4,26.75Z"/><path class="cls-1" d="M42.32,23.3A11.65,11.65,0,1,1,54,11.65,11.66,11.66,0,0,1,42.32,23.3Zm0-20.82a9.17,9.17,0,1,0,9.17,9.17A9.18,9.18,0,0,0,42.32,2.48Z"/><path class="cls-4" d="M31.38,46.31c.08-.12.19-.06.18-.28a2.23,2.23,0,0,0-.63-1,19,19,0,0,0-3.49-2.69c-1.39-.91-2.88-1.81-4.38-2.86a19.21,19.21,0,0,1-4.27-3.86,9.25,9.25,0,0,1-1.5-2.81A7.63,7.63,0,0,1,17,29.61a9.46,9.46,0,0,1,.79-2.83c.19-.43.42-.87.62-1.23L19,24.43,21.47,20l1.21-2.24c.39-.76.81-1.5,1.14-2.29-.18.84-.45,1.65-.69,2.47l-.76,2.45L20.8,25.21l-.39,1.22a9.81,9.81,0,0,0-.32,1.13,6.61,6.61,0,0,0-.17,2.14A4.72,4.72,0,0,0,21.7,33a15.26,15.26,0,0,0,3.81,2.24c1.45.65,3,1.22,4.63,1.88.82.33,1.65.67,2.51,1.09a18.13,18.13,0,0,1,2.66,1.53A9.78,9.78,0,0,1,38,42.47a8,8,0,0,1,1,2.19,8.48,8.48,0,0,1,.25,2.43Z"/><polygon class="cls-4" points="30.41 43.58 32.21 46.46 30.29 46.29 29.4 42.38 30.41 43.58"/><path class="cls-4" d="M27,42c1.59,1.43,2.12,4.82.68,7.15s3.15,1.22,3.15,1.22L29.5,47l1.3-1-1.09-4.51Z"/></g></g></svg>