<?xml version="1.0" encoding="utf-8"?>
<!-- Generator: Adobe Illustrator 16.0.4, SVG Export Plug-In . SVG Version: 6.00 Build 0)  -->
<!DOCTYPE svg PUBLIC "-//W3C//DTD SVG 1.1//EN" "http://www.w3.org/Graphics/SVG/1.1/DTD/svg11.dtd">
<svg version="1.1" id="Layer_1" xmlns="http://www.w3.org/2000/svg" xmlns:xlink="http://www.w3.org/1999/xlink" x="0px" y="0px"
	 width="60px" height="60px" viewBox="226 226 60 60" enable-background="new 226 226 60 60" xml:space="preserve">
<path fill="#FFFFFF" d="M243.708,279.442c-2.595-2.277-2.851-6.232-0.567-8.82l12.854-14.642l-12.952-14.569
	c-2.295-2.576-2.062-6.531,0.514-8.826c2.587-2.301,6.542-2.069,8.837,0.513l16.627,18.695c0.194,0.214,0.256,0.482,0.415,0.708
	c0.249,0.373,0.494,0.726,0.659,1.129c0.134,0.354,0.201,0.702,0.28,1.062c0.086,0.427,0.171,0.836,0.165,1.269
	c0,0.366-0.073,0.72-0.141,1.086c-0.073,0.415-0.146,0.824-0.312,1.228c-0.146,0.366-0.372,0.677-0.586,1.019
	c-0.164,0.257-0.244,0.549-0.451,0.781l-16.51,18.799C250.256,281.469,246.307,281.725,243.708,279.442z"/>
</svg>
